<svg id="Layer_1" data-name="Layer 1" xmlns="http://www.w3.org/2000/svg" viewBox="0 0 1500 1500"><defs><style>.cls-1{font-size:146.3px;font-family:Roboto-Thin, Roboto;font-weight:200;letter-spacing:0.09em;}.cls-1,.cls-28,.cls-30{fill:#fff;}.cls-2{letter-spacing:0.06em;}.cls-3{letter-spacing:0.08em;}.cls-4{letter-spacing:-0.01em;}.cls-5{letter-spacing:0.12em;}.cls-6{letter-spacing:0.07em;}.cls-7{letter-spacing:0.05em;}.cls-8{letter-spacing:0.12em;}.cls-9{letter-spacing:0.07em;}.cls-10{letter-spacing:0.05em;}.cls-11{letter-spacing:0.06em;}.cls-12{letter-spacing:0.07em;}.cls-13{letter-spacing:0.1em;}.cls-14,.cls-22{font-family:Roboto-Bold, Roboto;font-weight:700;}.cls-14{letter-spacing:0.08em;}.cls-15{letter-spacing:0.09em;}.cls-16{letter-spacing:0.1em;}.cls-17{letter-spacing:0.07em;}.cls-18{letter-spacing:0.09em;}.cls-19{letter-spacing:0.05em;}.cls-20{letter-spacing:0.09em;}.cls-21{letter-spacing:0.1em;}.cls-22{letter-spacing:0.02em;}.cls-23{letter-spacing:0.09em;}.cls-24{letter-spacing:0em;}.cls-25{letter-spacing:0.09em;}.cls-26{letter-spacing:0.1em;}.cls-27{letter-spacing:0.07em;}.cls-29{fill:#005477;}.cls-30{font-size:84.8px;font-family:Raleway-Black, Raleway;font-weight:800;letter-spacing:0.09em;}.cls-31{letter-spacing:0.09em;}.cls-32{letter-spacing:0.1em;}.cls-33{fill:#f28950;}.cls-34{fill:#97c14c;}</style></defs><title>Artboard</title><text class="cls-1" transform="translate(115.42 1063.06)">A<tspan class="cls-2" x="99.81" y="0">M</tspan><tspan class="cls-3" x="234.72" y="0">M</tspan><tspan class="cls-4" x="372.59" y="0">A</tspan><tspan class="cls-5" x="457.93" y="0">T</tspan><tspan class="cls-6" x="562.69" y="0">T</tspan><tspan class="cls-7" x="660.12" y="0">I</tspan><tspan class="cls-8" x="706.16" y="0">L</tspan><tspan class="cls-9" x="799.84" y="0">A</tspan><tspan class="cls-10" x="898.04" y="0">I</tspan><tspan class="cls-11" x="944.09" y="0">N</tspan><tspan class="cls-12" x="1057.06" y="0">E</tspan><tspan class="cls-13" x="1151.02" y="0">N</tspan><tspan class="cls-14"><tspan x="372.33" y="175.56">T</tspan><tspan class="cls-15" x="474.09" y="175.56">I</tspan><tspan class="cls-16" x="529.56" y="175.56">E</tspan><tspan class="cls-17" x="627.16" y="175.56">T</tspan><tspan class="cls-18" x="727.32" y="175.56">O</tspan><tspan class="cls-19" x="841.19" y="175.56">K</tspan><tspan class="cls-18" x="941.63" y="175.56">O</tspan><tspan class="cls-20" x="1055.5" y="175.56">N</tspan><tspan class="cls-21" x="1172.23" y="175.56">E</tspan></tspan><tspan class="cls-22"><tspan x="573.27" y="351.11">P</tspan><tspan class="cls-23" x="670.82" y="351.11">A</tspan><tspan class="cls-24" x="782.6" y="351.11">L</tspan><tspan class="cls-25" x="862.39" y="351.11">V</tspan><tspan class="cls-26" x="971.38" y="351.11">E</tspan><tspan class="cls-27" x="1068.21" y="351.11">L</tspan><tspan class="cls-21" x="1158.23" y="351.11">U</tspan></tspan></text><path class="cls-28" d="M1154.05,578.27H968.24a58.38,58.38,0,0,0,0,116.75h185.81a58.38,58.38,0,0,0,0-116.75Z"/><path class="cls-29" d="M1019.45,668.05V596.76h13.65v71.29Z"/><path class="cls-29" d="M1120,608.91h-22.45v59.14H1084V608.91h-22.45V596.76H1120Z"/><text class="cls-30" transform="translate(943.48 433.44)">T<tspan class="cls-31" x="60.38" y="0">r</tspan><tspan class="cls-32" x="103.63" y="0">ade</tspan></text><path class="cls-33" d="M905.25,403.58l78.87-136.72H914.39l-47.16,79.39-51-79.39H766a135.09,135.09,0,0,1,34.49,26.34,139.22,139.22,0,0,1,29.63,48.95,173.1,173.1,0,0,1,9.76,58.13c0,22.62-3.68,43.49-10.89,62.05a136.64,136.64,0,0,1-76.18,78.25l-54.6,92.82h74.81l95.78-166.64,42.55,67.7h79.14Z"/><path class="cls-28" d="M1148.49,347.38h-28.78C1089.32,192.05,952.27,74.46,788.18,74.46c-186.38,0-338,151.65-338,338s151.61,338,338,338a335.31,335.31,0,0,0,152.69-36.56,80.71,80.71,0,0,0,27.37,4.71h20.64a363.73,363.73,0,0,1-200.7,60.12c-202,0-366.25-164.33-366.25-366.25S586.21,46.19,788.18,46.19C967.91,46.19,1117.68,176.36,1148.49,347.38Z"/><path class="cls-28" d="M1150.42,465a365,365,0,0,1-25,89.7h-31a335.2,335.2,0,0,0,27.38-89.7Z"/><path class="cls-34" d="M747.2,497.27c-24.4,6.88-49.94,6.79-74,2.53,24.49,1.15,49-2.08,71-11.46,22.1-8.93,41.25-23.43,57.4-40.33a230.84,230.84,0,0,0,17.5-21.47,171.8,171.8,0,0,0,2-26.24,153.44,153.44,0,0,0-8.67-51.83,120.21,120.21,0,0,0-25.63-42.4q-17-18.09-42.21-28.64t-58.42-10.56H583.23v267.6h102.9q30.52,0,55.4-9.61a122.59,122.59,0,0,0,42.59-27.14,116.51,116.51,0,0,0,21.25-29C787.72,481.59,768.11,491.8,747.2,497.27ZM656.73,330.94h29.4A60.91,60.91,0,0,1,711.38,336a53.64,53.64,0,0,1,19,14.14A63.09,63.09,0,0,1,742.28,372a91.28,91.28,0,0,1,4.15,28.27,94.09,94.09,0,0,1-4,27.89,64.62,64.62,0,0,1-11.68,22.23,53.42,53.42,0,0,1-19,14.7,59.92,59.92,0,0,1-25.63,5.28h-29.4Z"/></svg>