<svg xmlns="http://www.w3.org/2000/svg" viewBox="0 0 18 12.93"><defs><style>.cls-1{fill:#231f20;}</style></defs><title>Asset 8</title><g id="Layer_2" data-name="Layer 2"><g id="Слой_105" data-name="Слой 105"><path class="cls-1" d="M16.35,0H1.65A1.65,1.65,0,0,0,0,1.65v9.63a1.65,1.65,0,0,0,1.65,1.65h14.7A1.65,1.65,0,0,0,18,11.28V1.65A1.65,1.65,0,0,0,16.35,0Zm-.46,2.94L9.38,7.07h0l-.12,0-.05,0L9,7.18H9l-.18,0-.05,0-.12,0h0L2.11,2.94a.7.7,0,0,1-.22-1,.72.72,0,0,1,1-.22L9,5.62l6.12-3.89a.72.72,0,0,1,1,.22A.7.7,0,0,1,15.89,2.94Z"/></g></g></svg>