<svg xmlns="http://www.w3.org/2000/svg" viewBox="0 0 406.67 310.56"><defs><style>.cls-1{opacity:0.28;}.cls-2{opacity:0.54;}.cls-3{fill:#596829;}.cls-4{fill:#4a5420;}.cls-5{fill:#798e46;}.cls-6{fill:#b2b4b5;}.cls-7{fill:#120f0a;}.cls-14,.cls-15,.cls-24,.cls-25,.cls-8{fill:#160e0b;}.cls-9{fill:#c93b44;}.cls-10{fill:#fcc333;}.cls-11{fill:#202424;}.cls-12{fill:#c6c6c6;}.cls-13,.cls-26{fill:#717272;}.cls-14,.cls-16{opacity:0.06;}.cls-15{opacity:0.69;}.cls-16,.cls-32,.cls-33{fill:#fff;}.cls-17{fill:#3d3d3d;}.cls-18,.cls-36{fill:none;}.cls-18{stroke:#000;stroke-linecap:round;stroke-miterlimit:10;stroke-width:2px;}.cls-19{fill:#3f3f3f;opacity:0.74;}.cls-20{fill:#353535;opacity:0.67;}.cls-21{fill:#27588d;}.cls-22{fill:#030505;opacity:0.36;}.cls-23{fill:#fcc330;}.cls-24{opacity:0.48;}.cls-25{opacity:0.56;}.cls-26{opacity:0.43;}.cls-27{fill:#232324;}.cls-28{fill:#fcc331;}.cls-29{fill:#efaa5e;}.cls-30{fill:#d26654;}.cls-31{fill:#070403;}.cls-32{opacity:0.15;}.cls-34{fill:#f4f4f4;}.cls-35{fill:#cecece;}.cls-37{fill:#f2f2f2;}</style></defs><title>Asset 7</title><g id="Layer_2" data-name="Layer 2"><g id="DELIVERY"><path class="cls-1" d="M147.54,306.8c1.36.59,15.48-.36,23.31.94,6.11,1,2.53,2.45,6.66,2.77,7.75.6,21.13-4.37,39.64-4.27,12.6.07,13,2.4,29.14,3.16,17.39.81,23.39-1.61,52.44-2.1,23.63-.4,38.89.88,43.5-.36,2.79-.75-.24-1.9-2.29-2.42-11-2.81-43.71.91-94.8-.29-28.77-.68-35.67-2.22-57.85-1.49C163.67,303.52,145.89,306.1,147.54,306.8Z"/><path class="cls-2" d="M75,293.34c1.48,1,16.79-.61,25.28,1.57,6.62,1.7,2.74,4.08,7.22,4.61,8.41,1,22.91-7.28,43-7.12,13.66.11,14.15,4,31.59,5.27,18.86,1.36,25.36-2.68,56.86-3.5,25.61-.67,42.15,1.47,47.16-.6,3-1.25-.27-3.17-2.48-4-11.94-4.69-47.39,1.52-102.78-.48-31.2-1.13-38.68-3.7-62.73-2.48C92.45,287.86,73.18,292.17,75,293.34Z"/><path class="cls-1" d="M192.69,280.48c-1.34.31-15.15-.2-22.81.5-6,.54-2.48,1.3-6.52,1.47-7.59.32-20.69-2.32-38.8-2.27-12.34,0-12.77,1.28-28.52,1.68-17,.43-22.89-.86-51.33-1.12-23.12-.21-38,.47-42.57-.19-2.73-.39.24-1,2.24-1.28,10.77-1.5,42.78.48,92.78-.16,28.16-.36,34.91-1.17,56.63-.79C176.9,278.73,194.3,280.11,192.69,280.48Z"/><path class="cls-1" d="M38.81,294.08c5.95,2,22.63,3.9,37.42,3.66,13.82-.22,14.13-2.13,29.41-2.76,19.33-.8,29.37,1.81,57.23,2.26,34.12.55,42.88-3,75-2.46,29,.48,30.82,3.5,59.23,4.08,35.51.72,78.31-3.06,75.84-5.35-2.67-2.47-59.47-4.44-108.66-3.49-45,.88-47.91,3.5-81.1,3.55-61.65.1-90.78-8.89-123.4-7.31C40.84,287.19,30.25,291.22,38.81,294.08Z"/><path class="cls-1" d="M127.72,305.11c-1.88.65-7.16,1.28-11.84,1.2-4.37-.07-4.47-.7-9.3-.91-6.12-.26-9.3.6-18.11.75-10.8.18-13.57-1-23.74-.81-9.16.15-9.75,1.15-18.74,1.34-11.23.24-24.78-1-24-1.76s18.82-1.47,34.38-1.15c14.24.29,15.16,1.15,25.66,1.17,19.51,0,28.72-2.93,39.05-2.41C127.08,302.83,130.43,304.16,127.72,305.11Z"/><path class="cls-3" d="M125.12,272,26,270.59s-11.45-3.23-7.88-13,17.48-10.31,17.48-10.31S11.18,219.11,26,214.37s22.52,11.3,22.52,11.3S39.9,203.14,55.19,201,70.47,229.4,70.47,229.4s5.32-28.47,18-22.7S88,246.23,88,246.23s6.43-19.17,19.25-18.73c15.12.51,1.44,22.34,1.44,22.34s9.51-19.8,22.73-14.24c15.87,6.67,17.93,12.52,18.27,21.45C150.14,268.77,125.12,272,125.12,272Z"/><path class="cls-4" d="M17.53,271.52l57.11-.25s10.62-.26,8.68-6.7-10.45-7.09-10.45-7.09,15.6-17.73,6.68-21.15-14,6.83-14,6.83S71.29,228.72,62,227s-10,18.11-10,18.11-2.57-18.61-10.49-15.14-.63,25.68-.63,25.68S37.38,243,29.53,243c-9.26,0-1.42,14.48-1.42,14.48s-5.34-13.08-13.56-9.77c-9.86,4-11.27,7.73-11.69,13.53C2.3,268.86,17.53,271.52,17.53,271.52Z"/><path class="cls-5" d="M14.68,271.52l57.12-.25s10.62-.26,8.67-6.7S70,257.48,70,257.48s15.6-17.73,6.67-21.15-14,6.83-14,6.83,5.79-14.44-3.51-16.19-10,18.11-10,18.11-2.57-18.61-10.48-15.14S38,255.62,38,255.62,34.53,243,26.68,243c-9.26,0-1.42,14.48-1.42,14.48s-5.34-13.08-13.56-9.77C1.84,251.71.44,255.46,0,261.26-.54,268.86,14.68,271.52,14.68,271.52Z"/><path class="cls-6" d="M282.59,247.23a18.65,18.65,0,1,0,18.65,18.64A18.65,18.65,0,0,0,282.59,247.23Zm15,12.72-7.36,2.65-.93-1.61,5.93-5.13C296.39,256.75,297.58,260,297.58,260Zm-9.06-9.07c1.46.19,4.09,2.37,4.09,2.37l-5,6-1.62-.94Zm-18.56,5,6,5-.93,1.62L267.6,260C267.79,258.49,270,255.86,270,255.86Zm-3.31,7.65,7.7,1.38v1.87l-7.7,1.48C266.08,266.88,266.65,263.51,266.65,263.51Zm1,8.29,7.36-2.65.93,1.61L270,275.89C268.79,275,267.6,271.8,267.6,271.8Zm9.06,9.06c-1.46-.18-4.09-2.36-4.09-2.36l5.05-6,1.61.93Zm1-21.68-5.14-5.93c.9-1.18,4.09-2.37,4.09-2.37l2.66,7.36Zm2.52,22.64,1.38-7.7h1.86l1.48,7.7C283.59,282.39,280.23,281.82,280.23,281.82Zm3.35-24.19h-1.87l-1.48-7.7c1.36-.57,4.72,0,4.72,0Zm4.94,23.23-2.66-7.36,1.62-.93,5.13,5.93C291.72,279.68,288.52,280.86,288.52,280.86Zm6.7-5-6-5,.93-1.62,7.41,2.57C297.39,273.26,295.22,275.89,295.22,275.89Zm-4.38-9V265l7.7-1.48c.57,1.36,0,4.73,0,4.73Z"/><circle class="cls-7" cx="282.59" cy="265.87" r="7"/><path class="cls-8" d="M282.59,238a27.9,27.9,0,1,0,27.89,27.89A27.89,27.89,0,0,0,282.59,238Zm0,46.54a18.65,18.65,0,1,1,18.65-18.65A18.65,18.65,0,0,1,282.59,284.52Z"/><path class="cls-6" d="M124.81,247.23a18.65,18.65,0,1,0,18.65,18.64A18.65,18.65,0,0,0,124.81,247.23Zm15,12.72-7.36,2.65-.93-1.61,5.93-5.13C138.61,256.75,139.8,260,139.8,260Zm-9.06-9.07c1.46.19,4.09,2.37,4.09,2.37l-5.05,6-1.61-.94Zm-18.56,5,6,5-.93,1.62L109.82,260C110,258.49,112.18,255.86,112.18,255.86Zm-3.32,7.65,7.71,1.38v1.87l-7.71,1.48C108.3,266.88,108.86,263.51,108.86,263.51Zm1,8.29,7.36-2.65.93,1.61-5.93,5.13C111,275,109.82,271.8,109.82,271.8Zm9.06,9.06c-1.46-.18-4.09-2.36-4.09-2.36l5-6,1.61.93Zm1-21.68-5.13-5.93c.89-1.18,4.09-2.37,4.09-2.37l2.66,7.36Zm2.53,22.64,1.38-7.7h1.86l1.48,7.7C125.81,282.39,122.45,281.82,122.45,281.82Zm3.34-24.19h-1.86l-1.48-7.7c1.36-.57,4.72,0,4.72,0Zm5,23.23-2.66-7.36,1.61-.93,5.14,5.93C133.93,279.68,130.74,280.86,130.74,280.86Zm6.7-5-6-5,.93-1.62,7.41,2.57C139.61,273.26,137.44,275.89,137.44,275.89Zm-4.39-9V265l7.7-1.48c.57,1.36,0,4.73,0,4.73Z"/><circle class="cls-7" cx="124.81" cy="265.87" r="7"/><path class="cls-8" d="M124.81,238a27.9,27.9,0,1,0,27.89,27.89A27.89,27.89,0,0,0,124.81,238Zm0,46.54a18.65,18.65,0,1,1,18.65-18.65A18.65,18.65,0,0,1,124.81,284.52Z"/><path class="cls-8" d="M214.91,251.22l23.33-.7,20.11,6.76s-6,3-18.08,4.72c-14.29,2.08-36.23,3-55.06,2.63l-.4,6.41a9.69,9.69,0,0,1-7.22,3.08h-27.4l-8.92-27.41,5.48-3.85Z"/><path class="cls-9" d="M99.18,208.33h-1a3.74,3.74,0,0,0-3.57,3.89v4.17a4,4,0,0,0,1.93,3.46l2,1.15Z"/><path class="cls-10" d="M96.92,210.19v14.48a3.4,3.4,0,0,0,1.75,3l2.7,1.49V206.67l-1.4.14A3.4,3.4,0,0,0,96.92,210.19Z"/><path class="cls-11" d="M111.86,217.17,110.4,203.9h-7.49a2.74,2.74,0,0,0-2.73,2.74v20.23a2.75,2.75,0,0,0,1.75,2.55l-5,8.56h4.78l12.08-19.48Z"/><path class="cls-12" d="M167.27,257.28h50.38l-13.84-30.61L126.19,192.2l-17.49,13a6.83,6.83,0,0,0,.14,11.07Z"/><path class="cls-13" d="M212,244.73s-75.23-30.15-90.4-41.77l33.81,1.46,48.43,22.25Z"/><path class="cls-8" d="M120,187.12h74.44A17.51,17.51,0,0,1,212,204.63v12.3a9.29,9.29,0,0,1-13.32,8.37l-5.09-2.91c-12.5-5.87-26.08-12.57-38.18-18,0,0-19.3-.51-30.17-.65h0a9,9,0,0,1-8.91-9v-3.89A3.73,3.73,0,0,1,120,187.12Z"/><path class="cls-14" d="M212,204.63v5.84s-26.43.11-33.78,0-15.76-6.23-15.76-6.23H148.14c-6.61-.16-16.33-.38-22.93-.47a9,9,0,0,1-8.91-9v-3.31s1,2.82,8.92,2.82h83.34A17.35,17.35,0,0,1,212,204.63Z"/><polygon class="cls-15" points="148.89 224.74 144.56 230.58 171.7 246.04 188.71 245.56 161.79 228.74 159.7 231.23 148.89 224.74"/><path class="cls-16" d="M212,204.63v5.84s-26.43.11-33.78,0-15.76-6.23-15.76-6.23H148.14c-6.61-.16-16.33-.38-22.93-.47a9,9,0,0,1-8.91-9v-3.31s1,2.82,8.92,2.82h83.34A17.35,17.35,0,0,1,212,204.63Z"/><path class="cls-17" d="M158.94,262.85v7.21s-37.31,6-54-4.78c-15-9.73,9.63-21.78,16.33-21.51C130.82,244.15,141.84,248,158.94,262.85Z"/><path class="cls-6" d="M148,261.62v4.2s-32.48,2.33-38.47-2.78c-9-7.74,6.24-12.94,11-12.79C127.37,250.48,135.84,253,148,261.62Z"/><line class="cls-18" x1="120.11" y1="254.31" x2="131.08" y2="256.69"/><line class="cls-18" x1="120.11" y1="257.75" x2="131.08" y2="260.13"/><line class="cls-18" x1="120.11" y1="261.2" x2="131.08" y2="263.58"/><circle cx="113.78" cy="256.69" r="1.78"/><circle cx="140.5" cy="262.39" r="1.78"/><polygon class="cls-19" points="153.46 258.3 153.46 247.58 167.27 257.28 166.77 261.2 162.92 265.88 153.46 258.3"/><polygon class="cls-20" points="163.79 264.82 169.59 269.88 172.08 266.96 166.35 261.71 163.79 264.82"/><path class="cls-21" d="M257.38,166.93l-16.06,7.62s14.9,28.89,9.29,51c-.46,1.81-1,3.6-1.35,5.42-1.12,5-4.3,15.81-11.51,19.28l17.92,6.44s2.64,1.74,11-7.18,24.83-29.16,24.83-29.16Z"/><path class="cls-22" d="M259.18,215.2s8,12.24,3.55,19.7-13.68,19.73-13.68,19.73l8.84,3,33.56-36.27-3.21-4.33Z"/><path class="cls-12" d="M291.45,220.35s18.14,4.88,19,23.12c0,0-27.88-.85-35.55,1.88Z"/><path class="cls-12" d="M169.08,270.47a7.32,7.32,0,0,1,6.24-4.43c3.76-.26,46.4-1.16,69.89-4.63A32.38,32.38,0,0,0,265,250.53l24.82-28.8a9,9,0,0,0,.57-.73l1.45.49s-18.76,33.79-50.75,49Z"/><path class="cls-13" d="M169.08,270.47s1.54-5.11,6.24-5.43c3.76-.26,46.4-1.16,69.89-4.63A32.38,32.38,0,0,0,265,249.53l24.82-28.8a9,9,0,0,0,.57-.73l2.53.85s-17,33.46-51.87,49Z"/><path class="cls-23" d="M291.45,220.35l-23-.68a12.63,12.63,0,0,1-11.84-9.44c-2.66-10.28-6.69-26.17-7.49-31.14C248,172,256.3,167.48,257.29,167l.09,0,0,0c.6.72,8.84,10.65,16.54,20.15.95,1.17,1.89,2.33,2.79,3.46l1.31,1.62c.48.6.95,1.21,1.41,1.85.85,1.18,1.66,2.41,2.42,3.67A99.15,99.15,0,0,1,291.45,220.35Z"/><path class="cls-12" d="M291.45,220.35l-23-.68a12.63,12.63,0,0,1-11.84-9.44c-2.66-10.28-6.69-26.17-7.49-31.14C248,172,256.3,167.48,257.29,167l.09,0,0,0c.6.72,8.84,10.65,16.54,20.15.95,1.17,1.89,2.33,2.79,3.46l1.31,1.62c.48.6.95,1.21,1.41,1.85.85,1.18,1.66,2.41,2.42,3.67A99.15,99.15,0,0,1,291.45,220.35Z"/><path class="cls-24" d="M276.74,190.58H264.13a1.73,1.73,0,0,1-1.73-1.73h0a1.72,1.72,0,0,1,1.73-1.73H274C274.9,188.29,275.84,189.45,276.74,190.58Z"/><path class="cls-24" d="M281.88,197.72h-5.37a1.83,1.83,0,0,1-1.83-1.84h0a1.83,1.83,0,0,1,1.83-1.83h2.95C280.31,195.23,281.12,196.46,281.88,197.72Z"/><path class="cls-24" d="M263.94,204s.3,9.4,7.92,10.86a131.6,131.6,0,0,0,16.27,1.84s-10.54-9.73-15.19-10.87S263.94,204,263.94,204Z"/><polygon class="cls-12" points="232.51 154.96 241.32 174.55 257.38 166.93 250.81 156.39 232.51 154.96"/><path class="cls-25" d="M257.38,166.93c-14.11.4-21.64-4.79-21.64-4.79L233.41,157l18.11.57Z"/><path class="cls-12" d="M232.51,155s8.49-6,10.87-9.46c1.46-2.13.86-6.6,4.43-8.54,1.66-.91,10.76-1.57,17.3,7s7.67,14,7.67,14,.81,3.89-1,5.19-16.16.7-16.16.7S241.81,162.79,232.51,155Z"/><path class="cls-26" d="M271.81,163.17c-1.78,1.3-16.16.71-16.16.71s-13.84-1.08-23.14-8.92c0,0,1.61-1.14,3.62-2.71l34.22-.24a25.67,25.67,0,0,1,2.43,6S273.59,161.88,271.81,163.17Z"/><rect class="cls-27" x="232.04" y="150.9" width="7" height="14.55" rx="3.5" transform="translate(180.83 -120.23) rotate(45)"/><path class="cls-27" d="M247.75,154h-1.43c-2.11-5.93-6.76-18.19-9.39-19.23a23.79,23.79,0,0,0-3.54-1.07c-.13-4.51-1.67-8.06-3.55-8.06s-3.57,3.9-3.57,8.71,1.6,8.7,3.57,8.7c1.78,0,3.24-3.17,3.52-7.31a24.07,24.07,0,0,1,2.83.88c1.34.68,5.08,9.29,8,17.38h-.72a1,1,0,0,0,0,2h4.27a1,1,0,0,0,0-2Z"/><polygon class="cls-7" points="272.7 249.23 279.02 260.29 282.02 259.28 275.38 247.23 272.7 249.23"/><path class="cls-7" d="M277.36,247.23l6.33,10.43-.25,1.86,5.4,5.44,4.21-8.34a3,3,0,0,0-.79-3.68l-.32-.26a3,3,0,0,0-4,.25l-.45.47-3.16-7.3Z"/><path class="cls-28" d="M271.81,163.17c-3.35.38-8.22-3.24-9-3.89s-.23-4.7,0-6.81-2.65-4.48-3.41-5.89,1.08-2.43,1.08-2.43c1.25-.6,3.23-.4,4.67-.12,6.48,8.48,7.6,14,7.6,14S273.59,161.88,271.81,163.17Z"/><path class="cls-3" d="M288.1,299.67l69.65,1s30.95-8.52,22.18-19.48-24.13,8.68-24.13,8.68,22.42.05,8.78-16.08S349,288.92,349,288.92s14.38-32.62-.24-34.57-7.32,25.89-7.32,25.89,4.63-32.68-13.89-32.69-1.7,36.5-1.7,36.5-2.93-31-18.77-25.55,2.93,29,2.93,29,5.11-10.55-17.06-15,10.72,18.66,10.72,18.66-3.09-16-24.21-9.94S288.1,299.67,288.1,299.67Z"/><path class="cls-4" d="M308.42,304H272.76s-18.54-6.33-14.63-12.29,9.85,2.6,9.85,2.6-11.39-10.94-3.54-13.85,12.13,10.69,12.13,10.69-5.4-10.51-.19-12.89,6.62,7.49,6.62,7.49-6.3-15.09,1.74-14.35,4.56,16.29,4.56,16.29-1.42-9.77,7.17-10,2.63,14.63,2.63,14.63,3.73-12.59,12.11-12.54,5.4,13.84,5.4,13.84,2.61-9.58,10.06-6.65S323.29,304,323.29,304Z"/><path class="cls-5" d="M305.82,304H270.16s-18.54-6.33-14.63-12.29,9.85,2.6,9.85,2.6-11.39-10.94-3.54-13.85S274,291.17,274,291.17s-5.4-10.51-.19-12.89,6.62,7.49,6.62,7.49-6.3-15.09,1.73-14.35,4.57,16.29,4.57,16.29-1.42-9.77,7.17-10,2.63,14.63,2.63,14.63,3.73-12.59,12.11-12.54,5.4,13.84,5.4,13.84,2.61-9.58,10.06-6.65S320.69,304,320.69,304Z"/><polygon class="cls-29" points="101.13 139.74 101.13 186.66 148.48 186.66 148.48 139.74 119.35 139.74 101.13 139.74"/><polygon class="cls-30" points="119.35 139.74 119.43 148.84 119.68 148.84 120.15 147.67 120.75 148.84 121.22 147.67 121.83 148.84 122.3 147.67 122.9 148.84 123.37 147.67 123.98 148.84 124.45 147.67 125.05 148.84 125.52 147.67 126.13 148.84 126.6 147.67 127.2 148.84 127.67 147.67 128.28 148.84 128.75 147.67 129.35 148.84 129.82 147.67 130.42 148.84 130.75 148.84 130.75 139.74 119.35 139.74"/><rect class="cls-31" x="119.35" y="153.02" width="11.41" height="3.49" rx="1.74"/><polygon class="cls-32" points="101.13 139.74 101.13 186.66 125.05 186.66 125.05 139.74 110.33 139.74 101.13 139.74"/><rect class="cls-33" x="113.9" y="166.95" width="21.58" height="7.6" rx="0.48" transform="translate(-33.76 30.76) rotate(-12.4)"/><polygon points="117.1 175.34 115.91 169.83 116.81 169.63 118 175.14 117.1 175.34"/><polygon points="119.19 174.87 118 169.36 118.46 169.26 119.65 174.77 119.19 174.87"/><polygon points="120.83 174.45 119.64 168.93 119.86 168.88 121.05 174.4 120.83 174.45"/><polygon points="122.06 174.23 120.87 168.72 121.1 168.66 122.29 174.18 122.06 174.23"/><polygon points="123.56 173.82 122.37 168.3 123.04 168.15 124.23 173.66 123.56 173.82"/><polygon points="125.88 173.38 124.69 167.86 125.14 167.76 126.33 173.27 125.88 173.38"/><polygon points="127.18 173.16 125.99 167.65 126.22 167.6 127.41 173.11 127.18 173.16"/><polygon points="128.71 172.83 127.52 167.31 128.19 167.16 129.38 172.68 128.71 172.83"/><polygon points="130.45 172.38 129.26 166.87 129.49 166.81 130.68 172.33 130.45 172.38"/><polygon points="133.02 171.77 131.83 166.26 132.28 166.16 133.47 171.67 133.02 171.77"/><polygon points="131.73 172.2 130.54 166.68 130.76 166.63 131.95 172.15 131.73 172.2"/><path class="cls-34" d="M135.57,79.48l-.85-.62S135,79.11,135.57,79.48Z"/><path class="cls-35" d="M63.69,88.55a10.16,10.16,0,0,0,5.75,1.8,10.58,10.58,0,0,0,2.32-.25,8.52,8.52,0,0,0,4.34-2.32,17.63,17.63,0,0,0,7.48,1.62,17.86,17.86,0,0,0,7.19-1.48,24.72,24.72,0,0,0,16.31,5.68A25.79,25.79,0,0,0,121,89.74a25,25,0,0,0,15.55,5.06c6.92,0,13-2.48,16.95-6.29a16.82,16.82,0,0,0,9.84,3c6.5,0,12-3.28,13.62-7.75-.13.22-1.09,1.6-5.23,2.54-4.51,1-4.84-3.67-4.84-3.67C160.55,85.26,156.15,76,156.15,76a8.75,8.75,0,0,1-6.46,7.71c-5.13,1.6-11.8-2.6-14.12-4.24,7,5.39,1.57,8.9-8.18,4.24-2.13,7.56-14.57-5-14.38-4.48,2,5.22-7,7-9.25,7.05-5.86.25-9.1-6.46-9.1-5.73-3.52,5.58-11,5.73-14.08,6.09s-6-5.06-6-5.06.44,1.76-5.14,4.26-8.18-1.64-8.18-1.64A5,5,0,0,0,62.12,87,6.74,6.74,0,0,0,63.69,88.55Z"/><path class="cls-36" d="M135.57,79.48l-.85-.62S135,79.11,135.57,79.48Z"/><path class="cls-37" d="M172.49,72.87c0-.09,0-.18,0-.28,0-4.44-2.42-8.45-6.33-11.35.23,4.07-11.5,1.27-11.5,1.27,3.15,6-4.84,5.14-6.6,9.1-3.66,8.22-16.73-6.45-16.73-6.45.61,11.52-13.44,6.89-13.44,6.89-5.8,9.25-21.49-.58-21.49-.58-.58,11.59-21,7-21,7-1.21,3.91-11.82,3.37-13.52,3.26a4.87,4.87,0,0,0-.68,2.44s2.61,4.13,8.18,1.64,5.14-4.26,5.14-4.26,2.93,5.42,6,5.06,10.56-.51,14.08-6.09c0-.73,3.24,6,9.1,5.73,2.29-.1,11.25-1.83,9.25-7.05-.19-.47,12.25,12,14.38,4.48,9.75,4.66,15.18,1.15,8.18-4.24-.54-.37-.85-.62-.85-.62l.85.62c2.32,1.64,9,5.84,14.12,4.24A8.75,8.75,0,0,0,156.15,76s4.4,9.25,10.71,6.61c0,0,.33,4.69,4.84,3.67,4.14-.94,5.1-2.32,5.23-2.54a8.27,8.27,0,0,0,.53-2.84C177.46,77.69,175.52,74.81,172.49,72.87Z"/><path class="cls-33" d="M75.44,78.51s20.4,4.55,21-7c0,0,15.69,9.83,21.49.58,0,0,14.05,4.63,13.44-6.89,0,0,13.07,14.67,16.73,6.45,1.76-4,9.75-3.08,6.6-9.1,0,0,11.73,2.8,11.5-1.27a25.35,25.35,0,0,0-15-4.63,27.77,27.77,0,0,0-6.94.88,25,25,0,0,0-15.79-5.25c-8.68,0-16.14,3.89-19.48,9.47-.62,0-1.24-.07-1.87-.07-7.58,0-14.22,3-18,7.41a18.3,18.3,0,0,0-5.49-.82c-7.47,0-13.58,4.34-14.09,9.84h0c-3.37,0-6.26,1.53-7.52,3.7C63.62,81.88,74.23,82.42,75.44,78.51Z"/><path class="cls-33" d="M220.79,35.6s9.78,11.25,22.63,1A10.87,10.87,0,0,0,246.81,23S264.16,38,271.62,30.73s3.31-12.81,3.31-12.81,15,12.81,27.18,8.43c6.56-2.36,7.69-6.66,7.34-10.12a19.25,19.25,0,0,0-4.31-.85,19.75,19.75,0,0,0-4.09-2,21.68,21.68,0,0,0-11.69-3.37c-.52,0-1,0-1.55.07C283.26,4.08,274.65,0,264.75,0c-10.34,0-19.3,4.46-23.65,11a33.37,33.37,0,0,0-7.48,2.69,17.6,17.6,0,0,0-23.2,12.74c-8.3,1.27-14.63,7.64-14.63,15.32C195.79,41.71,218,49.06,220.79,35.6Z"/><path class="cls-37" d="M217.78,48.73s7.62,9.16,10.67,5.86a27.09,27.09,0,0,0,4.74-8.45s9.24,10.78,17.84,7.54,3.24-11.92,3.24-11.92,6.48,10.7,10.21,4.38c1.5,7.19,5.47,6.41,11.68,3,7-3.9,7.11-10.26,7.11-10.26s5.05,6.82,15.27,14.44c-10.7-12.16,3.4-13.66,9.11-3.25-.19-10.41,6.29-11.34,6.29-11.34s4.38,8.59,11.19,2.43c-2.1,3.73,5.38,8.88,8.22,8.33a16,16,0,0,0,10.76-7.52s9.84,8.47,10,2.85a5.23,5.23,0,0,0-2.23-4.11,7.39,7.39,0,0,0-6.4-4.61,11.44,11.44,0,0,0-7.38-1,16,16,0,0,0-14.84-10,15.79,15.79,0,0,0-2.49.21,20.25,20.25,0,0,0-11.28-9c.35,3.46-.78,7.76-7.34,10.12-12.17,4.38-27.18-8.43-27.18-8.43s4.15,5.52-3.31,12.81S246.81,23,246.81,23a10.87,10.87,0,0,1-3.39,13.62c-12.85,10.28-22.63-1-22.63-1-2.83,13.46-25,6.11-25,6.11A15,15,0,0,0,202.61,54C203,54,218.51,52.42,217.78,48.73Z"/><path class="cls-35" d="M221.09,55.73a17.59,17.59,0,0,0,20.57.62,36.16,36.16,0,0,0,7.51.79,35.85,35.85,0,0,0,6.55-.6A30.92,30.92,0,0,0,275.24,63c8.36,0,15.82-2.92,20.67-7.47a19.43,19.43,0,0,0,14.87.16,17.33,17.33,0,0,0,10.75,3.64,16.56,16.56,0,0,0,13.83-7,7.23,7.23,0,0,0,2.2.33,7.41,7.41,0,0,0,5.25-2.17,7.67,7.67,0,0,0,2.16.32,7.33,7.33,0,0,0,2.26-.36c3.83-.22,6.84-2.7,6.84-5.72-.12,5.62-10-2.85-10-2.85a16,16,0,0,1-10.76,7.52c-2.84.55-10.32-4.6-8.22-8.33-6.81,6.16-11.19-2.43-11.19-2.43s-6.48.93-6.29,11.34c-5.71-10.41-19.81-8.91-9.11,3.25-10.22-7.62-15.27-14.44-15.27-14.44s-.13,6.36-7.11,10.26c-6.21,3.46-10.18,4.24-11.68-3-3.73,6.32-10.21-4.38-10.21-4.38s5.35,8.68-3.24,11.92-17.84-7.54-17.84-7.54a27.09,27.09,0,0,1-4.74,8.45c-3,3.3-10.67-5.86-10.67-5.86C218.51,52.42,203,54,202.61,54a19.12,19.12,0,0,0,10.84,3.3A19.59,19.59,0,0,0,221.09,55.73Z"/><path class="cls-33" d="M344.54,99s6.78,6.49,10-.64c2.35-5.2,21.74,6.23,11.49-6.64,0,0,13,7.7,11.43.42,0,0,9.65,2.69,9.82-1.38a21.36,21.36,0,0,0,0-2.25,16.77,16.77,0,0,0-2.38-.17h-.22c-1.09-4.27-6.19-7.49-12.33-7.49-4.63,0-8.67,1.84-10.84,4.57a14.64,14.64,0,0,0-5,1.73,16.3,16.3,0,0,0-4.76-.69c-6.1,0-11.18,3.19-12.32,7.41-2.9,1.68-4.78,4.28-4.78,7.21a7.25,7.25,0,0,0,1.49,4.33C339.91,105.23,346.43,104.19,344.54,99Z"/><path class="cls-37" d="M349,106.26s6.18-.59,6.27-3.89c0,0,7.28,5.4,9.23,3s-2.8-5.57-2.8-5.57l5.12,2.66a10.47,10.47,0,0,0,8.25.72c1.71-.61,2.84-1.56,1.28-3-3.47-3.3,7,1.53,7,1.53s-2-1.31.12-4.45,9.53,1.32,9.53,1.32-2.54-2.63-.76-4.07,7,2.88,7,2.88,3.81-.25,1.86-2.79A7.17,7.17,0,0,0,395.93,92a54.66,54.66,0,0,1,7.29.49,20.42,20.42,0,0,0-9.1-1.92l-.92,0a14.72,14.72,0,0,0-5.93-2.14,21.36,21.36,0,0,1,0,2.25c-.17,4.07-9.82,1.38-9.82,1.38C379,99.4,366,91.7,366,91.7c10.25,12.87-9.14,1.44-11.49,6.64-3.23,7.13-10,.64-10,.64,1.89,5.21-4.63,6.25-8.38,6.42a12,12,0,0,0,6.46,4.2C345.05,109.31,350,108.45,349,106.26Z"/><path class="cls-35" d="M358.13,105.61c2.16,2.78,6.23,4.65,10.91,4.65,4.52,0,8.47-1.75,10.68-4.38a16.29,16.29,0,0,0,5.17.83A14.37,14.37,0,0,0,395,102.92c6.51-.23,11.64-2.89,11.64-6.15,0-1.64-1.32-3.13-3.45-4.24a54.66,54.66,0,0,0-7.29-.49,7.17,7.17,0,0,1,5.25,2.54c1.95,2.54-1.86,2.79-1.86,2.79s-5.25-4.32-7-2.88.76,4.07.76,4.07-7.41-4.45-9.53-1.32-.12,4.45-.12,4.45-10.5-4.83-7-1.53c1.56,1.49.43,2.44-1.28,3a10.47,10.47,0,0,1-8.25-.72l-5.12-2.66s4.74,3.2,2.8,5.57-9.23-3-9.23-3c-.09,3.3-6.27,3.89-6.27,3.89,1,2.19-4,3-6.4,3.34a16.35,16.35,0,0,0,4.61.66C351.9,110.26,356,108.39,358.13,105.61Z"/></g></g></svg>