<svg xmlns="http://www.w3.org/2000/svg" viewBox="0 0 381.49 243.98"><defs><style>.cls-1{opacity:0.28;}.cls-2{opacity:0.54;}.cls-3{fill:#596829;}.cls-4{fill:#4a5420;}.cls-5{fill:#798e46;}.cls-6{fill:#b2b4b5;}.cls-7{fill:#120f0a;}.cls-14,.cls-15,.cls-24,.cls-25,.cls-8{fill:#160e0b;}.cls-9{fill:#c93b44;}.cls-10{fill:#fcc333;}.cls-11{fill:#202424;}.cls-12{fill:#c6c6c6;}.cls-13,.cls-26{fill:#717272;}.cls-14,.cls-16{opacity:0.06;}.cls-15{opacity:0.69;}.cls-16,.cls-29,.cls-30,.cls-34{fill:#fff;}.cls-17{fill:#3d3d3d;}.cls-18{fill:none;stroke:#000;stroke-linecap:round;stroke-miterlimit:10;stroke-width:2px;}.cls-19{fill:#3f3f3f;opacity:0.74;}.cls-20{fill:#353535;opacity:0.67;}.cls-21{fill:#27588d;}.cls-22{fill:#030505;opacity:0.36;}.cls-23{fill:#fcc330;}.cls-24{opacity:0.48;}.cls-25{opacity:0.56;}.cls-26{opacity:0.43;}.cls-27{fill:#232324;}.cls-28{fill:#fcc331;}.cls-30{opacity:0.18;}.cls-31{fill:#efaa5e;}.cls-32{fill:#d26654;}.cls-33{fill:#070403;}.cls-34{opacity:0.15;}</style></defs><title>Asset 6</title><g id="Layer_2" data-name="Layer 2"><g id="DELIVERY"><path class="cls-1" d="M147.54,240.22c1.36.59,15.48-.37,23.31.94,6.11,1,2.53,2.45,6.66,2.77,7.75.6,21.13-4.37,39.64-4.27,12.6.07,13,2.4,29.14,3.16,17.39.81,23.39-1.61,52.44-2.1,23.63-.4,38.89.88,43.5-.36,2.79-.75-.24-1.9-2.29-2.42-11-2.81-43.71.9-94.8-.3-28.77-.67-35.67-2.21-57.85-1.48C163.67,236.94,145.89,239.52,147.54,240.22Z"/><path class="cls-2" d="M75,226.76c1.48,1,16.79-.61,25.28,1.57,6.62,1.7,2.74,4.07,7.22,4.61,8.41,1,22.91-7.28,43-7.12,13.66.11,14.15,4,31.59,5.27,18.86,1.36,25.36-2.69,56.86-3.5,25.61-.67,42.15,1.46,47.16-.6,3-1.25-.27-3.17-2.48-4-11.94-4.69-47.39,1.51-102.78-.49-31.2-1.12-38.68-3.69-62.73-2.47C92.45,221.28,73.18,225.59,75,226.76Z"/><path class="cls-1" d="M192.69,213.9c-1.34.31-15.15-.2-22.81.5-6,.54-2.48,1.3-6.52,1.47-7.59.32-20.69-2.32-38.8-2.27-12.34,0-12.77,1.28-28.52,1.68-17,.43-22.89-.86-51.33-1.12-23.12-.21-38,.47-42.57-.19-2.73-.4.24-1,2.24-1.29,10.77-1.49,42.78.49,92.78-.15,28.16-.36,34.91-1.18,56.63-.79C176.9,212.15,194.3,213.52,192.69,213.9Z"/><path class="cls-1" d="M38.81,227.5c5.95,2,22.63,3.89,37.42,3.66,13.82-.23,14.13-2.13,29.41-2.77,19.33-.79,29.37,1.82,57.23,2.27,34.12.55,42.88-3,75-2.47,29,.48,30.82,3.51,59.23,4.09,35.51.72,78.31-3.06,75.84-5.35-2.67-2.48-59.47-4.44-108.66-3.49-45,.87-47.91,3.5-81.1,3.55-61.65.1-90.78-8.89-123.4-7.31C40.84,220.61,30.25,224.64,38.81,227.5Z"/><path class="cls-1" d="M127.72,238.52c-1.88.66-7.16,1.29-11.84,1.21-4.37-.07-4.47-.7-9.3-.91-6.12-.26-9.3.6-18.11.74-10.8.19-13.57-1-23.74-.81-9.16.16-9.75,1.16-18.74,1.35-11.23.24-24.78-1-24-1.77s18.82-1.46,34.38-1.14c14.24.28,15.16,1.15,25.66,1.17,19.51,0,28.72-2.93,39.05-2.41C127.08,236.25,130.43,237.58,127.72,238.52Z"/><path class="cls-3" d="M125.12,205.42,26,204s-11.45-3.23-7.88-13,17.48-10.31,17.48-10.31S11.18,152.53,26,147.79s22.52,11.29,22.52,11.29-8.58-22.52,6.71-24.69,15.28,28.42,15.28,28.42,5.32-28.46,18-22.69S88,179.64,88,179.64s6.43-19.16,19.25-18.73c15.12.52,1.44,22.34,1.44,22.34s9.51-19.79,22.73-14.23c15.87,6.67,17.93,12.52,18.27,21.45C150.14,202.19,125.12,205.42,125.12,205.42Z"/><path class="cls-4" d="M17.53,204.94l57.11-.25s10.62-.26,8.68-6.7-10.45-7.1-10.45-7.1,15.6-17.72,6.68-21.14-14,6.83-14,6.83,5.78-14.44-3.51-16.2S52,178.5,52,178.5s-2.57-18.61-10.49-15.15S40.85,189,40.85,189s-3.47-12.6-11.32-12.6c-9.26,0-1.42,14.47-1.42,14.47s-5.34-13.07-13.56-9.76c-9.86,4-11.27,7.73-11.69,13.52C2.3,202.28,17.53,204.94,17.53,204.94Z"/><path class="cls-5" d="M14.68,204.94l57.12-.25s10.62-.26,8.67-6.7S70,190.89,70,190.89s15.6-17.72,6.67-21.14-14,6.83-14,6.83,5.79-14.44-3.51-16.2-10,18.12-10,18.12-2.57-18.61-10.48-15.15S38,189,38,189s-3.47-12.6-11.32-12.6c-9.26,0-1.42,14.47-1.42,14.47s-5.34-13.07-13.56-9.76C1.84,185.13.44,188.88,0,194.67-.54,202.28,14.68,204.94,14.68,204.94Z"/><path class="cls-6" d="M282.59,180.64a18.65,18.65,0,1,0,18.65,18.65A18.65,18.65,0,0,0,282.59,180.64Zm15,12.72L290.22,196l-.93-1.61,5.93-5.13C296.39,190.17,297.58,193.36,297.58,193.36Zm-9.06-9.06c1.46.19,4.09,2.36,4.09,2.36l-5,6-1.62-.94Zm-18.56,5,6,5-.93,1.62-7.41-2.58C267.79,191.9,270,189.28,270,189.28Zm-3.31,7.65,7.7,1.38v1.86l-7.7,1.48C266.08,200.29,266.65,196.93,266.65,196.93Zm1,8.29,7.36-2.66.93,1.62L270,209.31C268.79,208.42,267.6,205.22,267.6,205.22Zm9.06,9.06c-1.46-.19-4.09-2.36-4.09-2.36l5.05-6,1.61.93Zm1-21.68-5.14-5.94c.9-1.17,4.09-2.36,4.09-2.36l2.66,7.36Zm2.52,22.64,1.38-7.7h1.86l1.48,7.7C283.59,215.81,280.23,215.24,280.23,215.24Zm3.35-24.19h-1.87l-1.48-7.7c1.36-.57,4.72,0,4.72,0Zm4.94,23.23-2.66-7.36,1.62-.93,5.13,5.93C291.72,213.09,288.52,214.28,288.52,214.28Zm6.7-5-6-5,.93-1.62,7.41,2.57C297.39,206.68,295.22,209.31,295.22,209.31Zm-4.38-9v-1.87l7.7-1.48c.57,1.36,0,4.72,0,4.72Z"/><circle class="cls-7" cx="282.59" cy="199.29" r="7"/><path class="cls-8" d="M282.59,171.4a27.89,27.89,0,1,0,27.89,27.89A27.89,27.89,0,0,0,282.59,171.4Zm0,46.54a18.65,18.65,0,1,1,18.65-18.65A18.65,18.65,0,0,1,282.59,217.94Z"/><path class="cls-6" d="M124.81,180.64a18.65,18.65,0,1,0,18.65,18.65A18.65,18.65,0,0,0,124.81,180.64Zm15,12.72L132.44,196l-.93-1.61,5.93-5.13C138.61,190.17,139.8,193.36,139.8,193.36Zm-9.06-9.06c1.46.19,4.09,2.36,4.09,2.36l-5.05,6-1.61-.94Zm-18.56,5,6,5-.93,1.62-7.41-2.58C110,191.9,112.18,189.28,112.18,189.28Zm-3.32,7.65,7.71,1.38v1.86l-7.71,1.48C108.3,200.29,108.86,196.93,108.86,196.93Zm1,8.29,7.36-2.66.93,1.62-5.93,5.13C111,208.42,109.82,205.22,109.82,205.22Zm9.06,9.06c-1.46-.19-4.09-2.36-4.09-2.36l5-6,1.61.93Zm1-21.68-5.13-5.94c.89-1.17,4.09-2.36,4.09-2.36l2.66,7.36Zm2.53,22.64,1.38-7.7h1.86l1.48,7.7C125.81,215.81,122.45,215.24,122.45,215.24Zm3.34-24.19h-1.86l-1.48-7.7c1.36-.57,4.72,0,4.72,0Zm5,23.23-2.66-7.36,1.61-.93,5.14,5.93C133.93,213.09,130.74,214.28,130.74,214.28Zm6.7-5-6-5,.93-1.62,7.41,2.57C139.61,206.68,137.44,209.31,137.44,209.31Zm-4.39-9v-1.87l7.7-1.48c.57,1.36,0,4.72,0,4.72Z"/><circle class="cls-7" cx="124.81" cy="199.29" r="7"/><path class="cls-8" d="M124.81,171.4a27.89,27.89,0,1,0,27.89,27.89A27.89,27.89,0,0,0,124.81,171.4Zm0,46.54a18.65,18.65,0,1,1,18.65-18.65A18.65,18.65,0,0,1,124.81,217.94Z"/><path class="cls-8" d="M214.91,184.64l23.33-.7,20.11,6.76s-6,3-18.08,4.71c-14.29,2.08-36.23,3-55.06,2.64l-.4,6.4a9.68,9.68,0,0,1-7.22,3.09h-27.4l-8.92-27.41,5.48-3.85Z"/><path class="cls-9" d="M99.18,141.75h-1a3.74,3.74,0,0,0-3.57,3.89v4.17a4,4,0,0,0,1.93,3.46l2,1.15Z"/><path class="cls-10" d="M96.92,143.6v14.49a3.37,3.37,0,0,0,1.75,3l2.7,1.49V140.09l-1.4.14A3.39,3.39,0,0,0,96.92,143.6Z"/><path class="cls-11" d="M111.86,150.59l-1.46-13.27h-7.49a2.73,2.73,0,0,0-2.73,2.73v20.24a2.72,2.72,0,0,0,1.75,2.54l-5,8.57h4.78l12.08-19.49Z"/><path class="cls-12" d="M167.27,190.7h50.38l-13.84-30.61-77.62-34.47-17.49,13a6.83,6.83,0,0,0,.14,11.07Z"/><path class="cls-13" d="M212,178.14s-75.23-30.15-90.4-41.77l33.81,1.46,48.43,22.26Z"/><path class="cls-8" d="M120,120.54h74.44A17.51,17.51,0,0,1,212,138.05v12.3a9.29,9.29,0,0,1-13.32,8.37l-5.09-2.91c-12.5-5.87-26.08-12.57-38.18-18,0,0-19.3-.5-30.17-.64h0a9,9,0,0,1-8.91-9v-3.89A3.73,3.73,0,0,1,120,120.54Z"/><path class="cls-14" d="M212,138.05v5.84s-26.43.11-33.78,0-15.76-6.23-15.76-6.23H148.14c-6.61-.16-16.33-.38-22.93-.47a9,9,0,0,1-8.91-9v-3.31s1,2.82,8.92,2.82h83.34A17.35,17.35,0,0,1,212,138.05Z"/><polygon class="cls-15" points="148.89 158.16 144.56 164 171.7 179.46 188.71 178.98 161.79 162.16 159.7 164.64 148.89 158.16"/><path class="cls-16" d="M212,138.05v5.84s-26.43.11-33.78,0-15.76-6.23-15.76-6.23H148.14c-6.61-.16-16.33-.38-22.93-.47a9,9,0,0,1-8.91-9v-3.31s1,2.82,8.92,2.82h83.34A17.35,17.35,0,0,1,212,138.05Z"/><path class="cls-17" d="M158.94,196.27v7.21s-37.31,6-54-4.78c-15-9.73,9.63-21.79,16.33-21.52C130.82,177.57,141.84,181.43,158.94,196.27Z"/><path class="cls-6" d="M148,195v4.19s-32.48,2.33-38.47-2.78c-9-7.73,6.24-12.94,11-12.78C127.37,183.9,135.84,186.41,148,195Z"/><line class="cls-18" x1="120.11" y1="187.73" x2="131.08" y2="190.1"/><line class="cls-18" x1="120.11" y1="191.17" x2="131.08" y2="193.55"/><line class="cls-18" x1="120.11" y1="194.62" x2="131.08" y2="197"/><circle cx="113.78" cy="190.1" r="1.78"/><circle cx="140.5" cy="195.81" r="1.78"/><polygon class="cls-19" points="153.46 191.72 153.46 181 167.27 190.7 166.77 194.62 162.92 199.29 153.46 191.72"/><polygon class="cls-20" points="163.79 198.24 169.59 203.29 172.08 200.37 166.35 195.12 163.79 198.24"/><path class="cls-21" d="M257.38,100.35,241.32,108s14.9,28.89,9.29,51c-.46,1.81-1,3.61-1.35,5.43-1.12,5-4.3,15.81-11.51,19.28l17.92,6.43s2.64,1.75,11-7.17,24.83-29.16,24.83-29.16Z"/><path class="cls-22" d="M259.18,148.62s8,12.24,3.55,19.7-13.68,19.73-13.68,19.73l8.84,3,33.56-36.27-3.21-4.33Z"/><path class="cls-12" d="M291.45,153.77s18.14,4.87,19,23.12c0,0-27.88-.86-35.55,1.88Z"/><path class="cls-12" d="M169.08,203.89a7.34,7.34,0,0,1,6.24-4.44c3.76-.25,46.4-1.16,69.89-4.62A32.43,32.43,0,0,0,265,184l24.82-28.81c.39-.46.57-.72.57-.72l1.45.49s-18.76,33.79-50.75,49Z"/><path class="cls-13" d="M169.08,203.89s1.54-5.11,6.24-5.44c3.76-.25,46.4-1.16,69.89-4.62A32.43,32.43,0,0,0,265,183l24.82-28.81c.39-.46.57-.72.57-.72l2.53.85s-17,33.46-51.87,49Z"/><path class="cls-23" d="M291.45,153.77l-23-.68a12.63,12.63,0,0,1-11.84-9.44c-2.66-10.28-6.69-26.17-7.49-31.14-1.15-7.1,7.19-11.61,8.18-12.11l.09-.05,0,0c.6.72,8.84,10.65,16.54,20.15.95,1.17,1.89,2.33,2.79,3.46l1.31,1.62c.48.6.95,1.21,1.41,1.85.85,1.18,1.66,2.41,2.42,3.67A99.15,99.15,0,0,1,291.45,153.77Z"/><path class="cls-12" d="M291.45,153.77l-23-.68a12.63,12.63,0,0,1-11.84-9.44c-2.66-10.28-6.69-26.17-7.49-31.14-1.15-7.1,7.19-11.61,8.18-12.11l.09-.05,0,0c.6.72,8.84,10.65,16.54,20.15.95,1.17,1.89,2.33,2.79,3.46l1.31,1.62c.48.6.95,1.21,1.41,1.85.85,1.18,1.66,2.41,2.42,3.67A99.15,99.15,0,0,1,291.45,153.77Z"/><path class="cls-24" d="M276.74,124H264.13a1.73,1.73,0,0,1-1.73-1.73h0a1.72,1.72,0,0,1,1.73-1.73H274C274.9,121.71,275.84,122.87,276.74,124Z"/><path class="cls-24" d="M281.88,131.14h-5.37a1.84,1.84,0,0,1-1.83-1.84h0a1.83,1.83,0,0,1,1.83-1.83h2.95C280.31,128.65,281.12,129.88,281.88,131.14Z"/><path class="cls-24" d="M263.94,137.45s.3,9.41,7.92,10.87a131.6,131.6,0,0,0,16.27,1.84s-10.54-9.73-15.19-10.87S263.94,137.45,263.94,137.45Z"/><polygon class="cls-12" points="232.51 88.38 241.32 107.97 257.38 100.34 250.81 89.81 232.51 88.38"/><path class="cls-25" d="M257.38,100.35c-14.11.4-21.64-4.79-21.64-4.79l-2.33-5.18,18.11.57Z"/><path class="cls-12" d="M232.51,88.37s8.49-6,10.87-9.46c1.46-2.12.86-6.59,4.43-8.54,1.66-.9,10.76-1.56,17.3,7s7.67,14.05,7.67,14.05.81,3.89-1,5.19-16.16.7-16.16.7S241.81,96.21,232.51,88.37Z"/><path class="cls-26" d="M271.81,96.59c-1.78,1.3-16.16.71-16.16.71s-13.84-1.08-23.14-8.92c0,0,1.61-1.14,3.62-2.71l34.22-.24a25.67,25.67,0,0,1,2.43,6S273.59,95.3,271.81,96.59Z"/><rect class="cls-27" x="232.04" y="84.31" width="7" height="14.55" rx="3.5" transform="translate(133.75 -139.73) rotate(45)"/><path class="cls-27" d="M247.75,87.38h-1.43c-2.11-5.94-6.76-18.2-9.39-19.23a24,24,0,0,0-3.54-1.08c-.13-4.5-1.67-8-3.55-8s-3.57,3.9-3.57,8.71,1.6,8.7,3.57,8.7c1.78,0,3.24-3.17,3.52-7.31a22.31,22.31,0,0,1,2.83.88c1.34.68,5.08,9.29,8,17.38h-.72a1,1,0,0,0,0,2h4.27a1,1,0,0,0,0-2Z"/><polygon class="cls-7" points="272.7 182.64 279.02 193.71 282.02 192.7 275.38 180.64 272.7 182.64"/><path class="cls-7" d="M277.36,180.64l6.33,10.44-.25,1.86,5.4,5.43,4.21-8.33a3,3,0,0,0-.79-3.69l-.32-.25a3,3,0,0,0-4,.25l-.45.47-3.16-7.3Z"/><path class="cls-28" d="M271.81,96.59c-3.35.38-8.22-3.24-9-3.89s-.23-4.7,0-6.81-2.65-4.48-3.41-5.89,1.08-2.43,1.08-2.43c1.25-.6,3.23-.4,4.67-.12,6.48,8.48,7.6,14,7.6,14S273.59,95.3,271.81,96.59Z"/><path class="cls-3" d="M288.1,233.09l69.65,1s30.95-8.52,22.18-19.48-24.13,8.68-24.13,8.68,22.42.05,8.78-16.08S349,222.34,349,222.34s14.38-32.62-.24-34.57-7.32,25.89-7.32,25.89S346.05,181,327.53,181s-1.7,36.51-1.7,36.51-2.93-31-18.77-25.55,2.93,29,2.93,29,5.11-10.55-17.06-15,10.72,18.66,10.72,18.66-3.09-16-24.21-9.94S288.1,233.09,288.1,233.09Z"/><path class="cls-4" d="M308.42,237.44H272.76s-18.54-6.34-14.63-12.3,9.85,2.61,9.85,2.61-11.39-10.94-3.54-13.85,12.13,10.69,12.13,10.69-5.4-10.51-.19-12.9,6.62,7.5,6.62,7.5-6.3-15.1,1.74-14.35,4.56,16.29,4.56,16.29-1.42-9.77,7.17-10,2.63,14.62,2.63,14.62,3.73-12.58,12.11-12.53,5.4,13.84,5.4,13.84,2.61-9.58,10.06-6.65-3.38,17.08-3.38,17.08Z"/><path class="cls-5" d="M305.82,237.44H270.16s-18.54-6.34-14.63-12.3,9.85,2.61,9.85,2.61S254,216.81,261.84,213.9,274,224.59,274,224.59s-5.4-10.51-.19-12.9,6.62,7.5,6.62,7.5-6.3-15.1,1.73-14.35,4.57,16.29,4.57,16.29-1.42-9.77,7.17-10,2.63,14.62,2.63,14.62,3.73-12.58,12.11-12.53S314,227,314,227s2.61-9.58,10.06-6.65-3.38,17.08-3.38,17.08Z"/><path class="cls-29" d="M115.65,35.13h-.46a11.81,11.81,0,0,0-7.49-2.76C105.34,29.72,101,27.94,96,27.94c-6.38,0-11.74,2.91-13.19,6.84h-.39c-2.94,0-5.32,1.57-5.32,3.51a2.18,2.18,0,0,0,.09.63h46.09C122.32,36.73,119.27,35.13,115.65,35.13Z"/><path class="cls-29" d="M194.87,34h-.19a5.75,5.75,0,0,0-3.09-.88,7.78,7.78,0,0,0-4.85-1.4c-2.64,0-4.85.92-5.46,2.17h-.16c-1.21,0-2.2.5-2.2,1.12a.48.48,0,0,0,0,.2H198C197.63,34.47,196.37,34,194.87,34Z"/><path class="cls-29" d="M199,9.54h-.73c-2.7-2.09-7.06-3.51-12-3.67C182.45,2.36,175.44,0,167.41,0c-10.26,0-18.86,3.86-21.2,9.07h-.63c-4.72,0-8.55,2.09-8.55,4.67a2.63,2.63,0,0,0,.14.83h74.1C209.74,11.66,204.83,9.54,199,9.54Z"/><path class="cls-29" d="M286,8.26h-.29c-1.09-2.87-5.09-5-9.86-5-3.73,0-7,1.3-8.75,3.24a8.91,8.91,0,0,0-5.6,2h-.34c-2.7,0-5,1.17-5.7,2.78h34.45a1.49,1.49,0,0,0,.07-.47C290,9.41,288.18,8.26,286,8.26Z"/><path class="cls-30" d="M47.71,38.68c-.28-.26.57-.67,3.91-.73,3.77-.07,6.37.37,13.46.41S74.42,38,81.26,38s6.84.45,13.46.52c8.81.09,14.17-.58,21.38-.44,5.45.1,4.64.52,10,.61,7.24.12,13-.59,19.09-.49,7.05.12,10.35,1.26,4.61,1.48s-15.78-.62-28-.39c-7,.13-7.11.47-13.77.52-8.39.07-11-.44-20.21-.47-10.89,0-13.85.66-23.32.61C55.53,39.92,48.34,39.24,47.71,38.68Z"/><path class="cls-30" d="M166.31,35.67c-.09-.1.19-.26,1.32-.29s2.15.15,4.54.16,3.16-.14,5.47-.13,2.31.18,4.54.21c3,0,4.78-.23,7.22-.18,1.84,0,1.56.21,3.37.25,2.44,0,4.39-.24,6.44-.2,2.38,0,3.49.5,1.55.59s-5.32-.24-9.46-.15c-2.36,0-2.4.18-4.65.2-2.83,0-3.71-.17-6.82-.18-3.68,0-4.68.26-7.87.24C169,36.16,166.52,35.89,166.31,35.67Z"/><path class="cls-30" d="M105.4,14.28c-.28-.26.57-.66,3.91-.73,3.77-.07,6.37.38,13.46.42s9.34-.38,16.18-.34,6.84.45,13.46.52c8.82.1,14.17-.58,21.38-.44,5.45.1,4.64.52,10,.61,7.24.12,13-.59,19.09-.49,7.05.12,10.35,1.26,4.61,1.48s-15.78-.61-28-.39c-7,.13-7.11.47-13.77.52-8.39.07-11-.44-20.21-.47-10.89,0-13.85.67-23.32.61C113.22,15.52,106,14.85,105.4,14.28Z"/><path class="cls-30" d="M232.12,11.32c-.19-.19.39-.48,2.67-.53,2.57,0,4.34.27,9.17.3s6.37-.27,11-.24,4.66.33,9.17.38c6,.06,9.66-.42,14.58-.33,3.71.08,3.16.38,6.8.45,4.93.08,8.87-.43,13-.35,4.81.08,7.06.9,3.14,1.06s-10.76-.44-19.11-.28c-4.77.1-4.85.34-9.39.38-5.72.05-7.49-.32-13.78-.34-7.43,0-9.44.48-15.9.44C237.45,12.21,232.55,11.73,232.12,11.32Z"/><polygon class="cls-31" points="101.13 73.15 101.13 120.07 148.48 120.07 148.48 73.15 119.35 73.15 101.13 73.15"/><polygon class="cls-32" points="119.35 73.15 119.43 82.26 119.68 82.26 120.15 81.09 120.75 82.26 121.22 81.09 121.83 82.26 122.3 81.09 122.9 82.26 123.37 81.09 123.98 82.26 124.45 81.09 125.05 82.26 125.52 81.09 126.13 82.26 126.6 81.09 127.2 82.26 127.67 81.09 128.28 82.26 128.75 81.09 129.35 82.26 129.82 81.09 130.42 82.26 130.75 82.26 130.75 73.15 119.35 73.15"/><rect class="cls-33" x="119.35" y="86.44" width="11.41" height="3.49" rx="1.74"/><polygon class="cls-34" points="101.13 73.15 101.13 120.07 125.05 120.07 125.05 73.15 110.33 73.15 101.13 73.15"/><rect class="cls-29" x="113.9" y="100.37" width="21.58" height="7.6" rx="0.48" transform="translate(-19.46 29.21) rotate(-12.4)"/><polygon points="117.1 108.76 115.91 103.25 116.81 103.04 118 108.56 117.1 108.76"/><polygon points="119.19 108.29 118 102.78 118.46 102.67 119.65 108.19 119.19 108.29"/><polygon points="120.83 107.86 119.64 102.35 119.86 102.3 121.05 107.81 120.83 107.86"/><polygon points="122.06 107.65 120.87 102.13 121.1 102.08 122.29 107.6 122.06 107.65"/><polygon points="123.56 107.23 122.37 101.72 123.04 101.57 124.23 107.08 123.56 107.23"/><polygon points="125.88 106.79 124.69 101.28 125.14 101.18 126.33 106.69 125.88 106.79"/><polygon points="127.18 106.58 125.99 101.06 126.22 101.01 127.41 106.53 127.18 106.58"/><polygon points="128.71 106.25 127.52 100.73 128.19 100.58 129.38 106.1 128.71 106.25"/><polygon points="130.45 105.8 129.26 100.28 129.49 100.23 130.68 105.75 130.45 105.8"/><polygon points="133.02 105.19 131.83 99.68 132.28 99.58 133.47 105.09 133.02 105.19"/><polygon points="131.73 105.61 130.54 100.1 130.76 100.05 131.95 105.56 131.73 105.61"/></g></g></svg>