<svg id="Layer_1" data-name="Layer 1" xmlns="http://www.w3.org/2000/svg" viewBox="0 0 250 250"><title>backup</title><path d="M177.52,95.13a52.2,52.2,0,0,0-80.9-43.61L114.52,68l-50.7,2.14-2.15-50.7L81,37.18a72.94,72.94,0,1,1-21.75,89l-2.14-4.55,18.77-8.83L78,117.31a52.22,52.22,0,0,0,99.49-22.18Zm68.66,60.58v66.64a8.25,8.25,0,0,1-8.25,8.24H12.07a8.25,8.25,0,0,1-8.25-8.24V155.71a8.24,8.24,0,0,1,8.25-8.24H46.92a91.26,91.26,0,0,0,156.11,0h34.9A8.24,8.24,0,0,1,246.18,155.71ZM218.7,189.88a10.33,10.33,0,1,0-10.32,10.32A10.34,10.34,0,0,0,218.7,189.88Z"/></svg>