<svg xmlns="http://www.w3.org/2000/svg" viewBox="0 0 150.22 61.92"><defs><style>.cls-1{fill:#fff;}.cls-2{fill:#eaeaea;}</style></defs><title>cloud_3_1</title><g id="Layer_2" data-name="Layer 2"><g id="DELIVERY"><path class="cls-1" d="M135.84,43.15a6.78,6.78,0,0,1,1.47,4.15c0,4.42-4.48,8-10,8a11.06,11.06,0,0,1-7.87-3.06c-2.34,4-7.42,6.81-13.32,6.81a18.46,18.46,0,0,1-4.13-.48,36.9,36.9,0,0,1-15.6,3.35c-8.71,0-16.53-2.83-21.94-7.35a24.59,24.59,0,0,1-13.85,4.14,23.63,23.63,0,0,1-17.79-7.6c-.34,0-.68,0-1,0A21.42,21.42,0,0,1,23,49.39a16.46,16.46,0,0,1-8.85,2.49c-6.4,0-11.81-3.39-13.56-8.05A9.19,9.19,0,0,1,0,40.57a9.61,9.61,0,0,1,2-5.79c0-2.46,2.13-4.65,5.34-6.06a10,10,0,0,1-.16-1.65c0-6.24,6.34-11.31,14.16-11.31A16.55,16.55,0,0,1,29.78,18,5.17,5.17,0,0,1,30,16.85c1.68-4.58,9.56-6.77,17.59-4.89a24.31,24.31,0,0,1,4.46,1.51A25.54,25.54,0,0,1,74.27,0,25.21,25.21,0,0,1,94.55,10.53a16.93,16.93,0,0,1,7.22-1.59c5.94,0,11,2.92,13.12,7.06a13.29,13.29,0,0,1,2.42,2.2,17.84,17.84,0,0,1,6.25-1.12c5.89,0,11,2.78,13.31,6.78,7.48.45,13.35,4.58,13.35,9.62C150.22,38.75,143.81,43,135.84,43.15Z"/><path class="cls-1" d="M135.84,43.15a6.78,6.78,0,0,1,1.47,4.15c0,4.42-4.48,8-10,8a11.06,11.06,0,0,1-7.87-3.06c-2.34,4-7.42,6.81-13.32,6.81a18.46,18.46,0,0,1-4.13-.48,36.9,36.9,0,0,1-15.6,3.35c-8.71,0-16.53-2.83-21.94-7.35a24.59,24.59,0,0,1-13.85,4.14,23.63,23.63,0,0,1-17.79-7.6c-.34,0-.68,0-1,0A21.42,21.42,0,0,1,23,49.39a16.46,16.46,0,0,1-8.85,2.49c-6.4,0-11.81-3.39-13.56-8.05,0,0,12.18,7,12.75,2.47,5,3,10.59-2.62,11.13-7.7,0,0,7.09,1.72,9.05,6.66,9.58-9,17.36-11.6,17.66,1.23,12.51-6.67,7.67-12.32,7.67-12.32s14.31-1.83,16.25,11.24c8-11.35,7.56-6.32,13.28,3,.45-11.3,3.77-11.62,5.72-7.89,1-1.79-.22-8-6.27-8.87s19.24,0,16,9.41c-1.86,5.38,9.51,6.31,12.75,4.62s9.52-9.27,10-14c1.62,4.33,6.81,11.62,12.76,4.76,7.35-8.3,10.92-3,10.92-3C150.22,38.75,143.81,43,135.84,43.15Z"/><path class="cls-2" d="M135.84,43.15a6.78,6.78,0,0,1,1.47,4.15c0,4.42-4.48,8-10,8a11.06,11.06,0,0,1-7.87-3.06c-2.34,4-7.42,6.81-13.32,6.81a18.46,18.46,0,0,1-4.13-.48,36.9,36.9,0,0,1-15.6,3.35c-8.71,0-16.53-2.83-21.94-7.35a24.59,24.59,0,0,1-13.85,4.14,23.63,23.63,0,0,1-17.79-7.6c-.34,0-.68,0-1,0A21.42,21.42,0,0,1,23,49.39a16.46,16.46,0,0,1-8.85,2.49c-6.4,0-11.81-3.39-13.56-8.05,0,0,12.18,7,12.75,2.47,5,3,10.59-2.62,11.13-7.7,0,0,7.09,1.72,9.05,6.66,9.58-9,17.36-11.6,17.66,1.23,12.51-6.67,7.67-12.32,7.67-12.32s14.31-1.83,16.25,11.24c8-11.35,7.56-6.32,13.28,3,.45-11.3,3.77-11.62,5.72-7.89,1-1.79-.22-8-6.27-8.87s19.24,0,16,9.41c-1.86,5.38,9.51,6.31,12.75,4.62s9.52-9.27,10-14c1.62,4.33,6.81,11.62,12.76,4.76,7.35-8.3,10.92-3,10.92-3C150.22,38.75,143.81,43,135.84,43.15Z"/></g></g></svg>