<svg xmlns="http://www.w3.org/2000/svg" viewBox="0 0 250 250"><title>delivery</title><g id="Layer_21" data-name="Layer 21"><path d="M219.88,183.12a24.34,24.34,0,1,1-24.33-24.44A24.39,24.39,0,0,1,219.88,183.12Zm-119-24.44a24.44,24.44,0,1,0,24.34,24.44A24.38,24.38,0,0,0,100.87,158.68ZM250,138.91v45.55c0,.76-2.3,1.38-3.07,1.38h-16.2c.08-.91.12-1.81.12-2.72a35.3,35.3,0,1,0-70.6,0c0,.91,0,1.81.12,2.72h-24c.09-.91.12-1.81.12-2.72a35.29,35.29,0,1,0-70.58,0c0,.91,0,1.81.12,2.72H31.85a10.3,10.3,0,0,1-9.72-13.7l5.54-15.85H57.14a8.4,8.4,0,0,0,8.36-9.22,8.64,8.64,0,0,0-8.72-7.57H18.86a9.82,9.82,0,0,1-9.27-13.07h0a9.82,9.82,0,0,1,9.27-6.59H92.39a8.4,8.4,0,0,0,8.36-9.21A8.64,8.64,0,0,0,92,103.06H10a9.94,9.94,0,0,1,0-19.88h99.32A8.4,8.4,0,0,0,117.63,74a8.64,8.64,0,0,0-8.72-7.57H44l6-17a10.35,10.35,0,0,1,9.76-6.92H172.5a1.4,1.4,0,0,1,1.4,1.4v4.67h15.37a17,17,0,0,1,14.35,8l36.23,47.85.4,1.08a22.31,22.31,0,0,1-.18,15.3,1.39,1.39,0,0,1,.66.67l9.15,17Zm-25.67-18.37a21.36,21.36,0,0,0,2.35-3.36,8.5,8.5,0,0,0,1.37-5.17L189.38,65.37l-15.48-.05v53.85a1.37,1.37,0,0,0,1.37,1.37Z"/></g></svg>