<svg xmlns="http://www.w3.org/2000/svg" viewBox="0 0 250 250"><title>doc</title><g id="Layer_10" data-name="Layer 10"><path d="M231.94,66l-58.8-58.8a18.16,18.16,0,0,0-12.9-5.34H70.45A18.26,18.26,0,0,0,52.21,20.13v12H25.3A12.59,12.59,0,0,0,12.71,44.76V235.52A12.59,12.59,0,0,0,25.3,248.11H173.9a12.59,12.59,0,0,0,12.59-12.59v-6.38h32.56a18.27,18.27,0,0,0,18.24-18.24v-132A18.08,18.08,0,0,0,231.94,66ZM42.87,200.36H31.75v-54H52.81a24.4,24.4,0,0,1,10.69,2.22,16.39,16.39,0,0,1,7.1,6.32,17.67,17.67,0,0,1,2.48,9.32q0,7.94-5.43,12.51t-15,4.58H42.87Zm40.11,0v-54h16.6a25.16,25.16,0,0,1,12.73,3.2,22.35,22.35,0,0,1,8.77,9.12,28.13,28.13,0,0,1,3.15,13.44v2.48A28.21,28.21,0,0,1,121.14,188a22.21,22.21,0,0,1-8.73,9.08,25.39,25.39,0,0,1-12.72,3.26Zm86.32-31v9H148v22.05H136.83v-54H172v9H148v13.94ZM226,210.9a6.94,6.94,0,0,1-6.93,6.93H186.49V108.55h-77V32.17H63.51v-12a6.94,6.94,0,0,1,6.94-6.93h89.79a6.89,6.89,0,0,1,4.91,2L224,74a6.88,6.88,0,0,1,2,4.9ZM52.81,172.34H42.87V155.4H53.06a8.71,8.71,0,0,1,6.45,2.52,8.9,8.9,0,0,1,2.34,6.42,7.54,7.54,0,0,1-2.32,5.93Q57.22,172.34,52.81,172.34ZM113,175q-.08,7.93-3.52,12.2t-10,4.26H94.1v-36h5.48q6.57,0,10,4.25T113,172.12ZM182.8,94.65a13,13,0,0,1,2,2.59h-64V33.52A12.61,12.61,0,0,1,124,35.86Z"/></g></svg>