<svg xmlns="http://www.w3.org/2000/svg" viewBox="0 0 250 250"><title>gear</title><g id="Layer_19" data-name="Layer 19"><path d="M207.74,108.65H193.23a69.89,69.89,0,0,0-8.42-20.34l10.26-10.26a6.85,6.85,0,0,0,0-9.68L181.63,54.93a6.85,6.85,0,0,0-9.68,0L161.69,65.19a69.62,69.62,0,0,0-20.34-8.42V42.26a6.85,6.85,0,0,0-6.85-6.85h-19a6.85,6.85,0,0,0-6.85,6.85V56.77a69.62,69.62,0,0,0-20.34,8.42L78.05,54.93a6.85,6.85,0,0,0-9.68,0L54.93,68.37a6.85,6.85,0,0,0,0,9.68L65.19,88.31a69.62,69.62,0,0,0-8.42,20.34H42.26a6.85,6.85,0,0,0-6.85,6.85v19a6.85,6.85,0,0,0,6.85,6.85H56.77a69.62,69.62,0,0,0,8.42,20.34L54.93,172a6.85,6.85,0,0,0,0,9.68l13.44,13.44a6.85,6.85,0,0,0,9.68,0l10.26-10.26a70,70,0,0,0,20.34,8.42v14.51a6.85,6.85,0,0,0,6.85,6.85h19a6.85,6.85,0,0,0,6.85-6.85V193.23a69.89,69.89,0,0,0,20.34-8.42L172,195.07a6.85,6.85,0,0,0,9.68,0l13.44-13.44a6.85,6.85,0,0,0,0-9.68l-10.26-10.26a69.89,69.89,0,0,0,8.42-20.34h14.51a6.85,6.85,0,0,0,6.85-6.85v-19A6.85,6.85,0,0,0,207.74,108.65ZM125,174.58A49.58,49.58,0,1,1,174.58,125,49.58,49.58,0,0,1,125,174.58ZM143.49,125A18.49,18.49,0,1,1,125,106.51,18.5,18.5,0,0,1,143.49,125Z"/></g></svg>