<svg xmlns="http://www.w3.org/2000/svg" viewBox="0 0 250 250"><title>history</title><g id="Layer_11" data-name="Layer 11"><path d="M123.17,143.33V71.9h24.7v94.36H51.74V143.33ZM12.3,11.9V83.66H83.4L55.48,55.48A98.38,98.38,0,0,1,101.94,29.2l1.39-.31c1.37-.31,2.75-.6,4.14-.85.55-.1,1.12-.18,1.68-.27,1.32-.22,2.65-.43,4-.59.6-.07,1.21-.12,1.81-.18,1.31-.13,2.63-.27,4-.35.67,0,1.34,0,2-.07,1.36-.06,2.72-.12,4.09-.12a98.36,98.36,0,0,1,29.12,4.39c.17.06.35.13.53.18q4.33,1.37,8.49,3.12l.27.1a98.76,98.76,0,0,1,28.74,18.83c1.4,1.31,2.78,2.65,4.1,4,1.16,1.21,2.3,2.45,3.39,3.72,1.36,1.58,2.64,3.22,3.89,4.88a98.14,98.14,0,0,1,15.55,29.94l.06.22c.91,2.94,1.69,6,2.32,9l.09.4a97.64,97.64,0,0,1,.11,38.68c-.1.56-.22,1.11-.34,1.67-.62,2.91-1.34,5.78-2.21,8.58l0,.13a99.06,99.06,0,0,1-55.45,61.28l-.57.24a97.86,97.86,0,0,1-38,7.65h-.13c-.5,0-1-.07-1.49-.07v0c-3-.05-6.11-.2-9.2-.55a96.75,96.75,0,0,1-11.83-2l-6,25.76a125.11,125.11,0,0,0,15,2.56q4.45.49,8.9.67c1.53.06,3,.06,4.58.07h.24l1.21,0V250a124.61,124.61,0,0,0,29.87-3.89v0c1.45-.37,2.88-.82,4.31-1.24.62-.19,1.25-.35,1.86-.54,1.38-.43,2.73-.91,4.09-1.39.76-.27,1.51-.53,2.26-.81,1.36-.51,2.71-1,4.06-1.6l2-.84c1.43-.63,2.86-1.26,4.27-1.94l.85-.42c1.47-.72,2.94-1.42,4.38-2.19l0-.05a125.6,125.6,0,0,0,24.57-17.36l.06.05A125.36,125.36,0,0,0,228.56,195l-.06,0a124.79,124.79,0,0,0,13.78-26.77h0c.49-1.34.9-2.7,1.35-4.06.25-.76.52-1.52.76-2.28.31-1,.59-2,.87-3.06.36-1.28.72-2.57,1-3.86.21-.89.42-1.78.61-2.68.33-1.47.64-3,.92-4.46.14-.79.29-1.58.42-2.37.27-1.65.5-3.32.71-5,.07-.51.16-1,.22-1.54h0a122.33,122.33,0,0,0-.29-30.1H249c-.07-.61-.2-1.2-.29-1.81-.14-1-.3-2-.47-2.94-.22-1.27-.43-2.54-.68-3.8-.21-1-.46-2.09-.7-3.13-.48-2.07-1-4.13-1.58-6.18-.32-1.12-.62-2.24-1-3.35s-.78-2.34-1.19-3.51c-.34-1-.68-1.95-1-2.92-.2-.52-.36-1.05-.56-1.57l-.05,0a125,125,0,0,0-14.26-26.5l.06-.05c-.58-.82-1.21-1.6-1.81-2.4l-.66-.89a125.71,125.71,0,0,0-17.68-19.06l-.07.07a125.32,125.32,0,0,0-24.88-16.92l0-.07c-.8-.41-1.61-.76-2.41-1.15l-1.58-.75c-1.39-.65-2.78-1.3-4.2-1.9-.81-.35-1.64-.66-2.46-1-1.41-.57-2.81-1.13-4.24-1.64-1.84-.66-3.69-1.29-5.57-1.87-.72-.22-1.46-.41-2.19-.62C158,4.44,156.4,4,154.82,3.62c-.31-.07-.61-.17-.92-.25v0A124.5,124.5,0,0,0,125,0c-.33,0-.66,0-1,0V0a124.58,124.58,0,0,0-15.68,1.12l-1.47.23c-2.16.32-4.32.68-6.46,1.11-.68.13-1.34.3-2,.44-1.43.31-2.87.59-4.28,1v.07a123.25,123.25,0,0,0-28,11L66,14.78a125.64,125.64,0,0,0-24.64,17.3l.11.12c-1.6,1.45-3.1,3-4.63,4.5ZM60.45,199.45l-17.34,20a125.22,125.22,0,0,0,24.94,16.86l12.06-23.55A98.45,98.45,0,0,1,60.45,199.45ZM.1,120.22a125,125,0,0,0,1,21.2L27.3,138a99.07,99.07,0,0,1-.76-16.71q.13-3.51.52-7L.81,110.84l-.07.72C.44,114.3.22,117.27.1,120.22Zm33.13,40.72L8.61,170.61a125.56,125.56,0,0,0,14.3,26.5l21.61-15.27A98.84,98.84,0,0,1,33.23,160.94Z"/></g></svg>