<svg xmlns="http://www.w3.org/2000/svg" viewBox="0 0 250 250"><title>network</title><g id="Layer_6" data-name="Layer 6"><path d="M237,118.88H13A10.93,10.93,0,0,0,2.07,129.81v44A10.94,10.94,0,0,0,13,184.73H116.16V197h17.68V184.73H237a10.94,10.94,0,0,0,10.93-10.95v-44A10.93,10.93,0,0,0,237,118.88ZM53.06,164.62A12.82,12.82,0,1,1,65.88,151.8,12.81,12.81,0,0,1,53.06,164.62Zm48,0a12.82,12.82,0,1,1,12.81-12.82A12.83,12.83,0,0,1,101,164.62Zm48,0A12.82,12.82,0,1,1,161.8,151.8,12.82,12.82,0,0,1,149,164.62Zm48,0a12.82,12.82,0,1,1,12.81-12.82A12.83,12.83,0,0,1,196.94,164.62Zm-83.26-54.05L119,11h12l5.3,99.6Zm100.56,0H191.59L226.07,11h13.85Zm-178.48,0L10.08,11H23.93l34.48,99.6ZM4.77,216.1H97.94v17.69H4.77Zm147.29,0h93.17v17.69H152.06Zm-13.6-2.43v22.6A2.76,2.76,0,0,1,135.7,239H113.1a2.77,2.77,0,0,1-2.76-2.76v-22.6a2.77,2.77,0,0,1,2.76-2.76h22.6A2.76,2.76,0,0,1,138.46,213.67Z"/></g></svg>