<svg xmlns="http://www.w3.org/2000/svg" viewBox="0 0 250 250"><defs><style>.cls-1{fill:#000302;}</style></defs><title>phone</title><g id="Layer_16" data-name="Layer 16"><path class="cls-1" d="M59.28,26.94l33.83,58.6s-24.48,19,2.2,64.37,52,30,52,30l34.39,58s-4.68,3-11,6.6S124,264.35,64.78,165.32C6.46,63.8,40.57,38.5,48.82,33.27Zm71.49,42.45L92.21,2.6a.82.82,0,0,0-1.12-.3L61.54,19.36a.83.83,0,0,0-.3,1.12L99.8,87.27a.83.83,0,0,0,1.12.3L130.47,70.5A.81.81,0,0,0,130.77,69.39Zm87.8,151.53L180,154.13a.82.82,0,0,0-1.12-.3l-29.55,17.06A.82.82,0,0,0,149,172L187.6,238.8a.82.82,0,0,0,1.12.3L218.27,222A.81.81,0,0,0,218.57,220.92Z"/></g></svg>