<svg xmlns="http://www.w3.org/2000/svg" viewBox="0 0 250 250"><title>virus</title><g id="Layer_2" data-name="Layer 2"><path d="M239.66,125.41H201.29a244.17,244.17,0,0,0-2.73-35.16l26.32-26.32a8.05,8.05,0,0,0-11.39-11.39L187.12,78.92h-12.7c-.82-31.37-22.64-56.6-49.42-56.6S76.4,47.55,75.58,78.92H62.88L36.51,52.54A8.05,8.05,0,0,0,25.12,63.93L51.44,90.25a245.65,245.65,0,0,0-2.73,35.16H10.34a8.05,8.05,0,1,0,0,16.1H49.25c1.15,15.9,4.42,32.8,11.67,47.31L31.66,211.75a8.06,8.06,0,0,0,9.94,12.68l28-22c.14.17.26.35.4.52,12.67,15.36,30.51,23.15,53,23.15.68,0,1.35,0,2,0s1.32,0,2,0c22.49,0,40.33-7.79,53-23.15.13-.16.24-.33.37-.5l29.52,23.43a8.05,8.05,0,0,0,10-12.62l-30.83-24.47c7.25-14.52,10.52-31.42,11.68-47.33h38.9a8.05,8.05,0,1,0,0-16.1ZM125,38.43c17.93,0,32.56,18,33.32,40.49H91.68C92.44,56.44,107.07,38.43,125,38.43ZM127,210c-.55,0-1.11,0-1.65,0l-.35,0-.35,0c-.54,0-1.09,0-1.65,0-17.69,0-31-5.65-40.56-17.27C59.82,165.4,64.53,113.3,67,95H183c2.51,18.28,7.22,70.38-15.39,97.75C158,204.39,144.69,210,127,210Zm26.61-85.27-18.44,18.44,18.44,18.44A8.05,8.05,0,1,1,142.22,173L123.78,154.6,105.34,173A8.05,8.05,0,0,1,94,161.65l18.44-18.44L94,124.77a8.05,8.05,0,0,1,11.39-11.38l18.44,18.43,18.44-18.43a8.05,8.05,0,1,1,11.39,11.38Z"/></g></svg>