<svg xmlns="http://www.w3.org/2000/svg" viewBox="0 0 250 250"><title>wallet</title><g id="Layer_20" data-name="Layer 20"><path d="M214.19,93.57a19.69,19.69,0,0,0-19.68-19.68h-6.19V69.58c0-6.9-4.83-23.4-12.72-29.65a11.4,11.4,0,0,0-10-2.56l-.51.14L51.44,74.21a6.32,6.32,0,0,0-.65.27,19.67,19.67,0,0,0-15,19.09V186a19.68,19.68,0,0,0,19.68,19.67h139A19.68,19.68,0,0,0,214.19,186V165.43h-49.3a24.82,24.82,0,1,1,0-49.63h49.3ZM167.83,50.2c3,2.47,7.58,13.84,7.58,19.38v4.31h-81ZM68.65,163.91a3.71,3.71,0,0,1-3.7,3.71H59.37a3.71,3.71,0,0,1-3.7-3.71V115.63a3.7,3.7,0,0,1,3.7-3.7H65a3.7,3.7,0,0,1,3.7,3.7Zm102.44-33.59a10.3,10.3,0,1,1-10.3,10.3A10.3,10.3,0,0,1,171.09,130.32Z"/></g></svg>