<svg xmlns="http://www.w3.org/2000/svg" viewBox="0 0 250 250"><title>webdev</title><g id="Layer_9" data-name="Layer 9"><path d="M233.64,26.37H16.36A16.38,16.38,0,0,0,0,42.74V207.26a16.38,16.38,0,0,0,16.36,16.37H233.64A16.38,16.38,0,0,0,250,207.26V42.74A16.38,16.38,0,0,0,233.64,26.37ZM16.36,38.42H233.64A4.32,4.32,0,0,1,238,42.74V88.43H12.05V42.74A4.32,4.32,0,0,1,16.36,38.42ZM233.64,211.58H16.36a4.32,4.32,0,0,1-4.31-4.32V100.48H238V207.26A4.32,4.32,0,0,1,233.64,211.58ZM159.48,73.78H24.29V55.7H159.48Zm24-.24h-12v-18h12Zm21.1,0h-12v-18h12Zm21.1,0h-12v-18h12Zm-123.5,62H30.31V120h71.9ZM90.1,162.35H30.31V150.28H90.1ZM30.31,179.41h80.43v10.86H30.31Zm169-52.85v57.1a6.61,6.61,0,0,1-6.61,6.61H145.45a6.61,6.61,0,0,1-6.61-6.61v-57.1a6.61,6.61,0,0,1,6.61-6.61h47.21A6.61,6.61,0,0,1,199.27,126.56Z"/></g></svg>