<svg xmlns="http://www.w3.org/2000/svg" viewBox="0 0 151.4 50.72"><defs><style>.cls-1{fill:#fff;}.cls-2{fill:#eaeaea;}</style></defs><title>cloud_1</title><g id="Layer_2" data-name="Layer 2"><g id="DELIVERY"><path class="cls-1" d="M151.3,29.27c-.92-3.27-8.21-5.84-17-5.84a39.72,39.72,0,0,0-9.48,1.09s0-.06,0-.09c0-4.07-4.32-7.38-9.63-7.38a10.83,10.83,0,0,0-7.59,2.85,15.2,15.2,0,0,0-9-3,15.46,15.46,0,0,0-3.88.52c0-.26,0-.52,0-.79A15,15,0,0,0,79.63,1.78,15.45,15.45,0,0,0,72.76,3.4a26,26,0,0,0-32.87,6c-3.55.51-6.41,2.51-7.43,5.12a11.1,11.1,0,0,0-14.73,5.8,9.72,9.72,0,0,0-7.17,4.15c-.31,0-.61-.05-.93-.05C4.32,24.43,0,27.73,0,31.82a5.76,5.76,0,0,0,.64,2.62l.09.16s2.59,3,5.73,3.64,9.92-1.15,10.32-2.13l9.14,3.82,61.92,3.43,62.87-11.53.65-2Z"/><path class="cls-2" d="M151.4,30c0,3.48-7.05,6.31-16,6.53-1.8,2.9-8.57,5-16.67,5a41.5,41.5,0,0,1-8.14-.78,15.18,15.18,0,0,1-12.05,5.92,15.81,15.81,0,0,1-2.2-.17,17.65,17.65,0,0,1-22.62.2A26,26,0,0,1,44,45.3a15.22,15.22,0,0,1-12.78-.61,11.36,11.36,0,0,1-3.28.48,11,11,0,0,1-10.82-8.73,10.92,10.92,0,0,1-7.5,2.77c-4.11,0-7.62-2-9-4.77.42.2,9.34,4.46,8.18.62,4.2,1,5.15-3.6,6-5.54,0,.39-.87,3.73,4.72,5.75,1.12.4,12.83,3.43,9.2-1.18,3.87-2.31.68-5.69-.7-6.15-2.11-.7,14.49-3.39,10.24,1.58,7.93,4.43-.45,7-.45,7a39.75,39.75,0,0,0,9.62-.85c3.26-.81,6-2.35,5.74-5.26a5,5,0,0,0,3.59,4.14c3.45,1.26,10.41-5.86,7-8.14,0,0,7.17-1.4,6.67,3.73,3.75-3.48,4.38,2.92,3.4,5.24-1.54,3.59,8.41,4.66,9.82.75s2-6.89,4.55-7.83c0,0-2.74,4.78,0,7.59,1.52,1.57,6.8,3,7-2.24,4.42,2.51,4.49-2.62,3.68-5,0,0,3.19,3.88,7.52,4.3,8,.78,6.27-6.27,6.11-6.9a11.65,11.65,0,0,0,8.37,6.59c7.23,1.28,2.07-3.89,1.67-4.28.59.4,11.71,7.8,16-.49,4.8,3.66,12.81,4.75,12.81,1.43A2.24,2.24,0,0,1,151.4,30Z"/></g></g></svg>