<svg xmlns="http://www.w3.org/2000/svg" viewBox="0 0 82.33 31.04"><defs><style>.cls-1{fill:#fff;}.cls-2{fill:#eaeaea;}</style></defs><title>cloud_2_1</title><g id="Layer_2" data-name="Layer 2"><g id="DELIVERY"><path class="cls-1" d="M77.65,16.88c-1.45-2.71-4.8-4.61-8.71-4.61a9.12,9.12,0,0,0-1.18.07A13.65,13.65,0,0,0,58,8.49a14.93,14.93,0,0,0-4.24.61C51.45,3.81,45.19,0,37.81,0A19.25,19.25,0,0,0,26.67,3.38c-.63-.06-1.27-.11-1.92-.11-6.72,0-12.41,3.53-14.36,8.4a11.11,11.11,0,0,0-1.76-.14C3.86,11.53,0,14.63,0,18.45a5.84,5.84,0,0,0,.93,3.12,4.25,4.25,0,0,0-.8,1.55l0,.19,2.27,3.47,9.75-2.11,68.72-2.35Z"/><path class="cls-2" d="M82.33,22c0,3-3,5.42-6.77,5.42a8,8,0,0,1-3-.57,11.62,11.62,0,0,1-7.65-.16A14.56,14.56,0,0,1,58,28.41a15,15,0,0,1-4.56-.7,13.39,13.39,0,0,1-8.11,2.61,13,13,0,0,1-9-3.39l-.42,0C34.53,29.34,31.49,31,28,31a9.65,9.65,0,0,1-6.46-2.33,10.54,10.54,0,0,1-3.18.49,9.4,9.4,0,0,1-7.06-2.94,6.2,6.2,0,0,1-5.31,2.63C2.66,28.89,0,26.76,0,24.12a4.15,4.15,0,0,1,.13-1s8.49,3.52,9.12-2.05a4.1,4.1,0,0,0,6.37.43c3.94,4.67,4.43-.85,5.85-3.93,0,0,6.53,6.5,11.06,5.74.65-.11,2.89-1.3-.19-3.95,3.86,1.34,4.33-4.16,4.33-4.16s2.14,6.45,8.11,6.1c5.73-.34,1.2-4,.84-4.29.38.19,5.06,2.64,6.35.51.7,2.87,2.36,2.5,3.15,2.47,2.2-.1,2.32-3.78,1.91-5,0,0,4.62,3.29,8.46,3s4.86-3,4.86-3-.18,5,1.79,5.33c3.49.53,5.51-3.41,5.51-3.41C80.36,17.58,82.33,19.61,82.33,22Z"/></g></g></svg>