<svg xmlns="http://www.w3.org/2000/svg" viewBox="0 0 134.95 65.42"><defs><style>.cls-1{fill:#596829;}</style></defs><title>green_3</title><g id="Layer_2" data-name="Layer 2"><g id="DELIVERY"><path class="cls-1" d="M20,64.17l85.74,1.25s38.1-10.49,27.3-24-29.7,10.67-29.7,10.67,27.6.07,10.8-19.79-19.2,18.61-19.2,18.61,17.7-40.17-.3-42.56-9,31.87-9,31.87S91.32,0,68.52,0s-2.1,44.94-2.1,44.94-3.6-38.19-23.1-31.46,3.6,35.71,3.6,35.71,6.3-13-21-18.48,13.2,23,13.2,23S35.32,34,9.32,41.45,20,64.17,20,64.17Z"/></g></g></svg>