<svg xmlns="http://www.w3.org/2000/svg" width="25.326" height="25.326" viewBox="0 0 25.326 25.326">
  <path id="Path_1295" data-name="Path 1295" d="M258.168,66.77l-1.275-1.8-2.533,1.112.457,2.163h0a10.017,10.017,0,0,0-1.448,1.155l-2.008-.922-1.646,2.232,1.474,1.646h0a10.206,10.206,0,0,0-.672,1.723h0l-2.2.207L248,77.041l2.094.689a10.406,10.406,0,0,0,.284,1.835h0l-1.8,1.275,1.112,2.533,2.163-.457h0a10.017,10.017,0,0,0,1.155,1.448l-.922,2.008,2.232,1.646,1.646-1.474h0a10.206,10.206,0,0,0,1.723.672h0l.207,2.2,2.749.31.689-2.094a10.407,10.407,0,0,0,1.835-.284h0l1.275,1.8,2.533-1.112-.457-2.163h0a10.015,10.015,0,0,0,1.448-1.155l2.008.922,1.646-2.232-1.474-1.646h0a10.207,10.207,0,0,0,.672-1.723h0l2.2-.207.31-2.749-2.094-.689a10.407,10.407,0,0,0-.284-1.835h0l1.8-1.275-1.112-2.533-2.163.457h0a10.016,10.016,0,0,0-1.155-1.448l.922-2.008-2.232-1.646-1.646,1.474h0a10.206,10.206,0,0,0-1.723-.672h0l-.207-2.2-2.749-.31L260,66.494a9.561,9.561,0,0,0-1.827.276Zm9.841,7.075a8.015,8.015,0,1,1-10.556-4.128A8.02,8.02,0,0,1,268.009,73.844Z" transform="translate(-248 -64.4)" fill="#27588d"/>
</svg>
