<svg xmlns="http://www.w3.org/2000/svg" width="102.011" height="102.011" viewBox="0 0 102.011 102.011">
  <path id="Path_1300" data-name="Path 1300" d="M154.421,56.615V45.4l-8.772-1.818a42.705,42.705,0,0,0-1.93-7.264l6.67-5.954-5.61-9.712-8.505,2.809a42.9,42.9,0,0,0-5.308-5.308l2.809-8.505-9.712-5.61-5.954,6.67a42.707,42.707,0,0,0-7.264-1.93L109.025,0H97.805L95.987,8.772a42.707,42.707,0,0,0-7.264,1.93l-5.954-6.67-9.712,5.61,2.809,8.505a42.9,42.9,0,0,0-5.308,5.308l-8.505-2.809-5.61,9.712,6.67,5.954a42.708,42.708,0,0,0-1.93,7.264L52.41,45.4v11.22l8.772,1.818a42.707,42.707,0,0,0,1.93,7.264l-6.67,5.954,5.61,9.712,8.505-2.809a42.9,42.9,0,0,0,5.308,5.308l-2.809,8.505,9.712,5.61,5.955-6.67a42.706,42.706,0,0,0,7.264,1.93l1.818,8.772h11.22l1.818-8.772a42.707,42.707,0,0,0,7.264-1.93l5.954,6.67,9.712-5.61-2.809-8.505a42.9,42.9,0,0,0,5.308-5.308l8.505,2.809,5.61-9.712-6.67-5.954a42.707,42.707,0,0,0,1.93-7.264ZM103.415,62.6a11.59,11.59,0,1,1,11.59-11.59A11.594,11.594,0,0,1,103.415,62.6Z" transform="translate(-52.41)" fill="#242d3e"/>
</svg>
