<svg xmlns="http://www.w3.org/2000/svg" viewBox="0 0 102.86 54.99"><defs><style>.cls-1{fill:#4a5420;}.cls-2{fill:#798e46;}</style></defs><title>green_1</title><g id="Layer_2" data-name="Layer 2"><g id="DELIVERY"><path class="cls-1" d="M21.58,55l70.31-.31s13.07-.32,10.68-8.25S89.71,37.7,89.71,37.7s19.2-21.83,8.22-26-17.29,8.41-17.29,8.41S87.77,2.3,76.32.14,64,22.44,64,22.44,60.81-.47,51.07,3.79s-.79,31.62-.79,31.62S46,19.9,36.35,19.9c-11.4,0-1.75,17.82-1.75,17.82S28,21.62,17.91,25.7C5.77,30.6,4,35.21,3.52,42.35,2.83,51.71,21.58,55,21.58,55Z"/><path class="cls-2" d="M18.08,55l70.31-.31s13.07-.32,10.68-8.25S86.21,37.7,86.21,37.7s19.2-21.83,8.22-26-17.29,8.41-17.29,8.41S84.26,2.3,72.82.14s-12.34,22.3-12.34,22.3S57.31-.47,47.56,3.79s-.78,31.62-.78,31.62S42.51,19.9,32.85,19.9c-11.4,0-1.75,17.82-1.75,17.82s-6.57-16.1-16.69-12C2.27,30.6.54,35.21,0,42.35-.67,51.71,18.08,55,18.08,55Z"/></g></g></svg>