<svg xmlns="http://www.w3.org/2000/svg" viewBox="0 0 162.86 87.59"><defs><style>.cls-1{fill:#596829;}</style></defs><title>green_2</title><g id="Layer_2" data-name="Layer 2"><g id="DELIVERY"><path class="cls-1" d="M132.6,87.59l-122-1.75s-14.09-4-9.7-16,21.52-12.7,21.52-12.7-30-34.65-11.84-40.49S38.25,30.54,38.25,30.54,27.69,2.81,46.5.14s18.82,35,18.82,35S71.88.09,87.53,7.19s-.63,48.66-.63,48.66,7.92-23.6,23.69-23.06c18.62.64,1.78,27.51,1.78,27.51s11.71-24.38,28-17.53c19.53,8.22,22.07,15.41,22.49,26.41C163.4,83.61,132.6,87.59,132.6,87.59Z"/></g></g></svg>