<svg xmlns="http://www.w3.org/2000/svg" width="47.714" height="47.714" viewBox="0 0 47.714 47.714">
  <path id="Path_1297" data-name="Path 1297" d="M217.135,71.673l4.059-.974-.164-5.231-4.11-.724h0a19.162,19.162,0,0,0-1.008-3.361l3.025-2.87-2.758-4.446-3.921,1.43h0a19.749,19.749,0,0,0-2.551-2.4h0L210.9,49.1l-4.61-2.473-2.68,3.2a19.479,19.479,0,0,0-3.412-.8h0l-.974-4.059-5.231.164-.724,4.11h0a19.162,19.162,0,0,0-3.361,1.008l-2.87-3.025-4.446,2.758,1.43,3.921h0a19.75,19.75,0,0,0-2.4,2.551h0l-4.007-1.189-2.473,4.61,3.2,2.68a19.479,19.479,0,0,0-.8,3.412h0l-4.059.974.164,5.231,4.11.724h0a19.162,19.162,0,0,0,1.008,3.361l-3.025,2.87,2.758,4.446,3.921-1.43h0a19.749,19.749,0,0,0,2.551,2.4h0l-1.189,4.007,4.61,2.473,2.68-3.2a19.48,19.48,0,0,0,3.412.8h0l.974,4.059,5.231-.164.724-4.11h0a19.162,19.162,0,0,0,3.361-1.008l2.87,3.025,4.446-2.758-1.43-3.921h0a19.75,19.75,0,0,0,2.4-2.551h0l4.007,1.189,2.473-4.61-3.2-2.68a19.479,19.479,0,0,0,.8-3.412ZM197.8,83.944a15.139,15.139,0,1,1,14.667-15.6A15.143,15.143,0,0,1,197.8,83.944Z" transform="translate(-173.48 -44.96)" fill="#a8b780"/>
</svg>
