<svg xmlns="http://www.w3.org/2000/svg" width="42.957" height="42.965" viewBox="0 0 42.957 42.965">
  <path id="Path_1299" data-name="Path 1299" d="M192.468,113.546l-1.482-4.481-3.74.431a18.4,18.4,0,0,0-1.732-2.645l1.879-3.257-3.524-3.137-3.025,2.249a18.323,18.323,0,0,0-2.818-1.413l-.009-3.766L173.4,96.57l-1.491,3.447a17.668,17.668,0,0,0-3.154.19l-1.887-3.257-4.481,1.482.431,3.74a18.4,18.4,0,0,0-2.645,1.732l-3.257-1.879-3.137,3.533,2.249,3.025a18.323,18.323,0,0,0-1.413,2.818l-3.766.009-.957,4.619,3.447,1.491a17.668,17.668,0,0,0,.19,3.154l-3.257,1.887,1.482,4.481,3.74-.431a18.4,18.4,0,0,0,1.732,2.645l-1.879,3.257,3.524,3.137,3.025-2.249a18.322,18.322,0,0,0,2.818,1.413l.009,3.766,4.619.957,1.491-3.447a17.668,17.668,0,0,0,3.154-.19l1.887,3.257,4.481-1.482-.431-3.74a18.405,18.405,0,0,0,2.645-1.732l3.257,1.879,3.137-3.524-2.249-3.025a18.322,18.322,0,0,0,1.413-2.818l3.766-.009.957-4.619L189.4,118.6a17.668,17.668,0,0,0-.19-3.154ZM172.9,122.68a4.875,4.875,0,1,1,3.094-6.161A4.882,4.882,0,0,1,172.9,122.68Z" transform="translate(-149.89 -96.57)" fill="#c6c6c6"/>
</svg>
