<svg xmlns="http://www.w3.org/2000/svg" width="29.342" height="29.342" viewBox="0 0 29.342 29.342">
  <path id="Path_1296" data-name="Path 1296" d="M68.15,162.038l-1.482-2.085-2.938,1.284.526,2.5h0a12.707,12.707,0,0,0-1.68,1.336l-2.318-1.06-1.9,2.585,1.706,1.9h0a12.83,12.83,0,0,0-.784,2h0l-2.551.241-.353,3.188,2.43.793a11.907,11.907,0,0,0,.327,2.12h0l-2.085,1.482,1.284,2.938,2.5-.526h0a12.707,12.707,0,0,0,1.336,1.68l-1.06,2.318,2.585,1.9,1.9-1.706h0a12.831,12.831,0,0,0,2,.784h0l.241,2.551,3.188.353.793-2.43a11.906,11.906,0,0,0,2.12-.327h0l1.482,2.085,2.938-1.284-.526-2.5h0a12.709,12.709,0,0,0,1.68-1.336l2.318,1.06,1.9-2.585-1.706-1.9h0a12.83,12.83,0,0,0,.784-2h0l2.551-.241.353-3.188-2.43-.793a11.908,11.908,0,0,0-.327-2.12h0l2.085-1.482-1.284-2.938-2.5.526h0a12.707,12.707,0,0,0-1.336-1.68l1.06-2.318-2.585-1.9-1.9,1.706h0a12.831,12.831,0,0,0-2-.784h0l-.241-2.551-3.188-.353-.793,2.43a13.028,13.028,0,0,0-2.12.327Zm11.392,8.195a9.276,9.276,0,1,1-12.219-4.774A9.287,9.287,0,0,1,79.542,170.232Z" transform="translate(-56.37 -159.28)" fill="#B9B8C9"/>
</svg>
