<svg xmlns="http://www.w3.org/2000/svg" width="42.535" height="42.535" viewBox="0 0 42.535 42.535">
  <path id="Path_1303" data-name="Path 1303" d="M358.284,126.266l.62-4.222-4.946-1.439a16.131,16.131,0,0,0-.327-2.818l4.472-2.542-1.577-3.964L351.52,112.5a16.644,16.644,0,0,0-1.689-2.266l2.611-4.438-3.352-2.645-3.714,3.559a16.682,16.682,0,0,0-2.6-1.12l.043-5.153-4.222-.62-1.439,4.946a16.131,16.131,0,0,0-2.818.327l-2.542-4.472-3.964,1.577,1.224,5.007a16.645,16.645,0,0,0-2.266,1.689l-4.438-2.611-2.646,3.352,3.559,3.714a16.676,16.676,0,0,0-1.12,2.6l-5.153-.043-.62,4.222,4.946,1.439a16.131,16.131,0,0,0,.327,2.818l-4.472,2.542,1.577,3.964,5.007-1.224a16.645,16.645,0,0,0,1.689,2.266l-2.611,4.438,3.352,2.645,3.714-3.559a16.681,16.681,0,0,0,2.6,1.12l-.043,5.153,4.222.62,1.439-4.946a16.131,16.131,0,0,0,2.818-.327l2.542,4.472,3.964-1.577-1.224-5.007a16.644,16.644,0,0,0,2.266-1.689l4.438,2.611,2.646-3.352-3.559-3.714a16.676,16.676,0,0,0,1.12-2.6Zm-22.431,7.04a12.354,12.354,0,1,1,14.012-10.435A12.364,12.364,0,0,1,335.854,133.306Z" transform="translate(-316.37 -99.82)" fill="#525275"/>
</svg>
