<svg xmlns="http://www.w3.org/2000/svg" width="65.551" height="65.551" viewBox="0 0 65.551 65.551">
  <path id="Path_1298" data-name="Path 1298" d="M327.881,169.62l-.5-7.152-5.67-.776a27.208,27.208,0,0,0-1.551-4.55l3.99-4.093-4.007-5.946-5.3,2.172a27.3,27.3,0,0,0-3.619-3.145l1.413-5.549-6.446-3.145-3.5,4.515a26.752,26.752,0,0,0-4.722-.9l-1.551-5.515-7.152.5-.776,5.67a27.211,27.211,0,0,0-4.55,1.551l-4.093-3.99-5.946,4.007,2.172,5.3a27.3,27.3,0,0,0-3.145,3.619l-5.549-1.413-3.145,6.446,4.515,3.5a26.748,26.748,0,0,0-.9,4.722l-5.515,1.551.5,7.152,5.67.776a27.211,27.211,0,0,0,1.551,4.55l-3.99,4.093,4.007,5.946,5.3-2.172a27.3,27.3,0,0,0,3.619,3.145l-1.413,5.549,6.446,3.145,3.5-4.515a26.749,26.749,0,0,0,4.722.9l1.551,5.515,7.152-.5.776-5.67a27.212,27.212,0,0,0,4.55-1.551l4.093,3.99,5.946-4.007-2.172-5.3a27.3,27.3,0,0,0,3.145-3.619l5.549,1.413,3.145-6.446-4.515-3.5a26.748,26.748,0,0,0,.9-4.722Zm-32.263,6.092a7.412,7.412,0,1,1,6.877-7.911A7.41,7.41,0,0,1,295.618,175.712Z" transform="translate(-262.33 -135.53)" fill="#67658D"/>
</svg>
