<svg xmlns="http://www.w3.org/2000/svg" viewBox="0 0 250 250"><defs><style>.cls-1{fill:#fff;}.cls-2{fill:#99c24c;}.cls-3{fill:#f28a51;}</style></defs><title>logodxt_color_bg</title><g id="Layer_2" data-name="Layer 2"><path class="cls-1" d="M169.29,119.74h-3.67v9.72h-3.51v-9.72h-3.69v-3.06h10.87Z"/><path class="cls-1" d="M178.35,122.91a7.17,7.17,0,0,0-1.8.21,2.3,2.3,0,0,0-1.21.72v5.62h-3.42V120h3.13v1.8a4,4,0,0,1,1.26-1.46,2.71,2.71,0,0,1,1.61-.52,3.28,3.28,0,0,1,.43,0Z"/><path class="cls-1" d="M183.89,129.64a3.72,3.72,0,0,1-1.31-.23,3.41,3.41,0,0,1-1.06-.64,3,3,0,0,1-.69-1,2.84,2.84,0,0,1-.25-1.2,2.79,2.79,0,0,1,.31-1.32,3.15,3.15,0,0,1,.84-1,3.94,3.94,0,0,1,1.29-.67,5.7,5.7,0,0,1,1.64-.23,4.43,4.43,0,0,1,1.91.36v-.29a1.25,1.25,0,0,0-.38-1,1.93,1.93,0,0,0-1.25-.32,4.08,4.08,0,0,0-1.5.26,7.2,7.2,0,0,0-1.44.76L181,121a7.67,7.67,0,0,1,4.27-1.21,5.38,5.38,0,0,1,3.49,1,3.7,3.7,0,0,1,1.22,3v1.84a1.1,1.1,0,0,0,.15.67.64.64,0,0,0,.5.23v2.88c-.28.06-.54.1-.78.13a5.73,5.73,0,0,1-.66,0,2.42,2.42,0,0,1-1.39-.33,1.54,1.54,0,0,1-.62-1l-.08-.35a4.4,4.4,0,0,1-1.46,1.24A3.84,3.84,0,0,1,183.89,129.64Zm1-2.45a2.06,2.06,0,0,0,.63-.1,2.12,2.12,0,0,0,.57-.26,1.64,1.64,0,0,0,.33-.31.62.62,0,0,0,.12-.35v-.71a5.23,5.23,0,0,0-.66-.18,4.13,4.13,0,0,0-.65-.07,1.7,1.7,0,0,0-1,.31.93.93,0,0,0-.41.77.8.8,0,0,0,.32.65A1.22,1.22,0,0,0,184.92,127.19Z"/><path class="cls-1" d="M197.64,129.64a4.44,4.44,0,0,1-1.79-.36,4.18,4.18,0,0,1-1.41-1,4.59,4.59,0,0,1-.93-1.56,6.23,6.23,0,0,1,0-3.94,4.73,4.73,0,0,1,.85-1.55,4,4,0,0,1,1.31-1,3.69,3.69,0,0,1,1.67-.37,3.43,3.43,0,0,1,1.68.42,2.78,2.78,0,0,1,1.18,1.17v-5.08h3.42v9.36a1.1,1.1,0,0,0,.15.67.64.64,0,0,0,.5.23v2.88a7.55,7.55,0,0,1-1.44.18c-1.16,0-1.84-.44-2-1.31l-.07-.35a2.89,2.89,0,0,1-1.31,1.26A4,4,0,0,1,197.64,129.64Zm.94-2.88a2,2,0,0,0,1.62-1V124.1a2.41,2.41,0,0,0-.74-1,1.56,1.56,0,0,0-1.72-.23,1.67,1.67,0,0,0-.54.45,2.53,2.53,0,0,0-.36.67,2.37,2.37,0,0,0-.13.81,2,2,0,0,0,.51,1.44A1.79,1.79,0,0,0,198.58,126.76Z"/><path class="cls-1" d="M212.12,129.64a5.94,5.94,0,0,1-2.22-.39,4.63,4.63,0,0,1-1.63-1.05,4.46,4.46,0,0,1-1-1.53,5.07,5.07,0,0,1-.34-1.82,5.69,5.69,0,0,1,.33-1.94,4.69,4.69,0,0,1,1-1.6,4.77,4.77,0,0,1,1.62-1.09,6.32,6.32,0,0,1,4.48,0A4.84,4.84,0,0,1,216,121.3a4.71,4.71,0,0,1,1,1.56,5.38,5.38,0,0,1,.33,1.87,4.89,4.89,0,0,1,0,.54c0,.19,0,.36-.06.5h-6.64a1.31,1.31,0,0,0,.56,1.09,1.94,1.94,0,0,0,1.09.33,2.27,2.27,0,0,0,1.06-.25,1.23,1.23,0,0,0,.65-.7l2.9.83a4.55,4.55,0,0,1-1.77,1.85A5.62,5.62,0,0,1,212.12,129.64Zm1.51-5.92a1.72,1.72,0,0,0-.51-1.08,1.6,1.6,0,0,0-2.12,0,1.71,1.71,0,0,0-.5,1.08Z"/><path class="cls-1" d="M196.1,136.16a71.69,71.69,0,1,1-.45-25h6.11a77.8,77.8,0,1,0,.41,25Z"/><path class="cls-2" d="M116.58,143a35.4,35.4,0,0,1-15.71.54,34.39,34.39,0,0,0,15.07-2.44,35.32,35.32,0,0,0,12.18-8.56,48,48,0,0,0,3.72-4.56,36.82,36.82,0,0,0,.42-5.57,32.69,32.69,0,0,0-1.84-11A25,25,0,0,0,116,96.34a32.05,32.05,0,0,0-12.4-2.24H81.78v56.8h21.84a32.39,32.39,0,0,0,11.76-2,26,26,0,0,0,9-5.76,24.71,24.71,0,0,0,4.51-6.15A37.14,37.14,0,0,1,116.58,143ZM97.38,107.7h6.24a12.93,12.93,0,0,1,5.36,1.08,11.43,11.43,0,0,1,4,3,13.54,13.54,0,0,1,2.52,4.64,19.67,19.67,0,0,1,.88,6,19.93,19.93,0,0,1-.84,5.92,13.72,13.72,0,0,1-2.48,4.72,11.27,11.27,0,0,1-4,3.12,12.69,12.69,0,0,1-5.44,1.12H97.38Z"/><path class="cls-3" d="M150.12,123.12l16.74-29h-14.8l-10,16.85L131.23,94.1H120.57a28.7,28.7,0,0,1,7.32,5.59,29.56,29.56,0,0,1,6.29,10.39,36.78,36.78,0,0,1,2.07,12.34,36.27,36.27,0,0,1-2.31,13.17,29,29,0,0,1-16.17,16.61l-11.59,19.7h15.88l20.33-35.37,9,14.37h16.8Z"/></g></svg>