<svg xmlns="http://www.w3.org/2000/svg" xmlns:xlink="http://www.w3.org/1999/xlink" viewBox="0 0 459.1 323.28"><defs><style>.cls-1{opacity:0.28;}.cls-2{fill:#3a3a59;}.cls-3{fill:#4b4877;}.cls-4{fill:#525275;}.cls-5{fill:url(#linear-gradient);}.cls-6{fill:#b9b8c9;}.cls-7{fill:#8b89a7;}.cls-8{fill:#252547;}.cls-9{fill:#737391;}.cls-10{fill:#161639;}.cls-11{fill:#322f5e;}.cls-12{fill:url(#linear-gradient-2);}.cls-13{fill:#67658d;}.cls-14{fill:url(#linear-gradient-3);}.cls-15{fill:url(#linear-gradient-4);}</style><linearGradient id="linear-gradient" x1="90.29" y1="188.03" x2="376.26" y2="214.35" gradientUnits="userSpaceOnUse"><stop offset="0" stop-color="#b9b8c9"/><stop offset="0.89" stop-color="#67658d"/><stop offset="1" stop-color="#161639"/></linearGradient><linearGradient id="linear-gradient-2" x1="83.09" y1="150.53" x2="285.45" y2="231.64" gradientUnits="userSpaceOnUse"><stop offset="0" stop-color="#fff" stop-opacity="0.3"/><stop offset="1" stop-color="#fff" stop-opacity="0"/></linearGradient><linearGradient id="linear-gradient-3" x1="181.8" y1="7.62" x2="299.89" y2="114.32" gradientUnits="userSpaceOnUse"><stop offset="0" stop-color="#f4f4f4"/><stop offset="1" stop-color="#a3a3b7"/></linearGradient><linearGradient id="linear-gradient-4" x1="148.43" y1="14.49" x2="172.25" y2="14.49" gradientUnits="userSpaceOnUse"><stop offset="0" stop-color="#b9b8c9"/><stop offset="1" stop-color="#67658d"/></linearGradient></defs><title>Asset 32</title><g id="Layer_2" data-name="Layer 2"><g id="Layer_21" data-name="Layer 21"><path class="cls-1" d="M65.35,303.3c-5.64,3.75-57.53,3.55-58.78,5.73-.9,1.59,25,4.19,52.18,2.92,28.55-1.33,33.79-5.77,56.63-6.22,17.43-.35,30.43,2.07,55.71,6.91,36.4,7,40.92,11.19,54.52,10.58,16.09-.72,15.79-6.87,46.13-15.05,13.23-3.57,31.1-8.39,55.66-10.2,52.74-3.89,93.49,9.23,118.87,5.16,18.32-2.95,11.85-12.16,11.16-13.15,0,0-3.51-5-17.76-9.08C391.52,267.1,5.38,277.34.06,289.68-2.32,295.19,72.32,298.68,65.35,303.3Z"/><path class="cls-2" d="M108.06,255.41C97,234.52,105,214.27,98.44,212c-6.09-2.11-14.89,14.91-19.89,12.8-6.23-2.63,1.75-31.42-2.76-32.93-3.93-1.32-13.05,19.65-17.14,18.29-4.31-1.43,1-26.35-2.63-27.36C53.15,182,49.11,197.07,43.21,197,35,196.79,31.87,167.65,27.62,168c-3.52.3-9.82,21.1-.89,36.83,8.62,15.18,26.79,17.52,25.85,24.36S32.14,237.73,32.37,242c.27,5,27.27,5.32,28.28,12.5.69,4.84-11.15,7.75-10.74,13,.56,7.13,22.89,10.77,34.58,11.79,8.46.74,31.64,2.76,34.56-5.2C120.74,269.5,113.9,266.41,108.06,255.41Zm1,23.68c-1.86-3-3.94-6-6.18-9.06l-32.48-3.1.08-.75,31.8,3a291,291,0,0,0-25.63-29.32l0,.41-27.86,1.21,0-.75,27.56-1.19A552.89,552.89,0,0,0,33,200.24l.47-.59c.18.15,6.58,5.27,15.83,13.38L49,205.75l.75,0,.24,7.7H49.7c5,4.41,10.83,9.67,16.93,15.49l1.31-13.75.75.07L67.32,229.6c8.42,8.06,17.32,17.14,25.35,26.44L93.75,228l.76,0-1.12,28.89a184.85,184.85,0,0,1,16.35,21.81Z"/><path class="cls-3" d="M127.85,159.72c-3.7-8.32-12.5-13.62-15.66-11.26-2.94,2.19.91,9.56-3,14.71-3.73,4.93-12.55,5.18-14.44,1.74-1.72-3.15,3.65-7,5.11-15.91,1.92-11.85-4.23-25.43-9.77-25.79-4.72-.31-8,9-10.15,8C77.45,130,82.64,118,78.34,105.9c-1.34-3.79-4.73-10.77-8.4-10.47-6.12.51-6.62,21.51-12.48,21.74-9.34.36-16.14-33.06-19.32-32-1.81.59-2.52,12.49,1.66,24.61,7.81,22.63,27.32,30.5,24.74,38.67-1.56,4.91-9.29,4.18-9.91,8.64-.94,6.87,16.69,14,15.53,17.88-.62,2.09-5.8,0-11,3.61-4.4,3-8.29,9.71-7.41,15.42,1.51,9.75,16.48,14.08,20.38,15.21,8.2,2.37,11.86.73,14.91,4.59,4.22,5.32-.06,11.87,3.32,16.77,6.11,8.85,31.07,3.35,34.11-7.78,1.61-5.86-4.1-8.83-3.46-19.1.44-7.11,3.3-7.86,6.1-17.83C128.92,179.24,131.86,168.75,127.85,159.72ZM109,223l-.66.2c-2-8.8-6.78-20.58-12.58-32.9v.18l-30.61-1.15,0-.76,30.3,1.13C81.22,159.49,61,126.27,60.74,125.8l.55-.44c.2.32,9.54,15.68,20,35l7.5-22.6.63.25-7.69,23.17c7.4,13.7,15.3,29.27,20.87,42.81l13.63-27.8.59.37-13.88,28.28A122.66,122.66,0,0,1,109,223Z"/><path class="cls-2" d="M458.36,136.13c-.67-3-20.06,3.54-27.69-4.83-12-13.22,13.28-54.65,9.45-56.74-3.23-1.75-17.34,29.56-34.76,28.63-12.54-.66-21.24-17.73-23.73-16s10.49,18,6.46,36.49c-.31,1.42-2.79,12.84-8.78,13.93-8.58,1.56-16.08-19.59-21.18-18.25-8.74,2.29,5.78,66.34-7.42,71.5-8.61,3.37-22-21.12-29.14-17.76-6.76,3.16-5.82,30,8,49a61,61,0,0,0,12.3,12.49l5.66-9.12-13.86-25.61.88-.48,13.59,25.11,28.47-45.83-9.12-32.2,1-.27,8.87,31.32,29.05-46.76-9.75-18.1.88-.47L407,129.74l15.72-25.3.85.53-22.47,36.17,23-2.49.11,1-23.78,2.57-25.25,40.65,28.08,2.24-.08,1-28.59-2.28-21.09,34L375,229.25l-.47.88-21.57-11.51-10.25,16.51-.4-.26c20.22,15.26,47.32,18.07,52.3,10.66,5.48-8.16-17.66-26.12-10.89-38.94,6.67-12.64,35.1-6.44,38.12-16.72,2.21-7.54-12.47-13.1-11.69-22.87C411.49,149.75,459.4,140.75,458.36,136.13Z"/><path class="cls-4" d="M420.57,208.36c.37-2.84,16.73,1.18,25.78-7.83,10.1-10.05,7.42-32.67.33-35.25-8.09-2.94-19,21.23-29.7,18.28-10.14-2.8-11.07-27.39-14.36-27.09-3.83.35-.1,33.6-10.12,37.2-8.56,3.08-22.26-17.3-26.1-14.68-4.31,2.93,11,29.87,3.59,35.9-2.61,2.13-6.15.08-9.47,3.26-3.93,3.77-1.22,8.8-4.24,11.75-5.16,5-18.16-4.74-21.87-1s5,18.49,11.1,26.76c2.35,3.19,4.66,6.33,7,9.22,5.76-12.74,16.31-25.35,28-36.61l-2.91-29.9.75-.07,2.86,29.3a288.24,288.24,0,0,1,23.12-19.7l.22-24.25h.75l-.21,23.67a354.07,354.07,0,0,1,30.63-21.06l.39.65a355.23,355.23,0,0,0-40,28.52l23.3,2-.06.75-24.07-2a234.72,234.72,0,0,0-22.48,21.12l35.35,2.5-.06.76L372.16,238a133.66,133.66,0,0,0-11.78,14.74l16.25,6.66-.28.7L360,253.34a81.41,81.41,0,0,0-6.79,12l-.34-.15c6.2,7.46,12.92,13.22,22.06,13.81,10.39.66,22.38-5.44,23.83-12.92,1.05-5.48-4.24-8.2-2.94-12.07,3.24-9.66,39.94-3.54,41.12-8.81,1-4.51-25.06-12.16-24.15-17,1.09-5.75,39.66-2.16,40.14-5.88C453.32,218.91,420.05,212.39,420.57,208.36Z"/><rect class="cls-5" x="92.28" y="116.73" width="287.56" height="169.43" rx="16.3"/><rect class="cls-6" x="91.42" y="118.45" width="287.56" height="169.43" rx="16.3"/><path class="cls-7" d="M379,134.75V271.58a16.3,16.3,0,0,1-16.3,16.3H192.25A198.2,198.2,0,0,0,238.75,160a199.75,199.75,0,0,0-4.35-41.57H362.68A16.3,16.3,0,0,1,379,134.75Z"/><path class="cls-8" d="M126.48,146.22a5.36,5.36,0,0,1-2.1,4,7.9,7.9,0,0,1-5,1.46,7,7,0,0,1-5.32-2,7.75,7.75,0,0,1-1.94-5.59v-1a8.64,8.64,0,0,1,.89-4,6.24,6.24,0,0,1,2.56-2.65,8.82,8.82,0,0,1,8.77.53,5.77,5.77,0,0,1,2.15,4.1h-3.62a3.13,3.13,0,0,0-.95-2.21,3.81,3.81,0,0,0-2.49-.69,3.22,3.22,0,0,0-2.71,1.16,6,6,0,0,0-.93,3.6v1.19a6.35,6.35,0,0,0,.87,3.73,3.15,3.15,0,0,0,2.72,1.18,3.86,3.86,0,0,0,2.51-.69,2.94,2.94,0,0,0,.95-2.12Z"/><path class="cls-8" d="M135.38,145.7h-2.89v5.76h-3.63V135.73h6.54a8.08,8.08,0,0,1,4.81,1.24,4.1,4.1,0,0,1,1.69,3.51,4.46,4.46,0,0,1-.78,2.69,5.23,5.23,0,0,1-2.36,1.71l3.81,6.42v.16h-3.89Zm-2.89-2.63h2.92a3.21,3.21,0,0,0,2.12-.62,2.09,2.09,0,0,0,.75-1.71,2.25,2.25,0,0,0-.71-1.75,3.18,3.18,0,0,0-2.17-.63h-2.91Z"/><path class="cls-8" d="M155.25,144.62h-7v4.23h8.17v2.61h-11.8V135.73h11.78v2.63h-8.15v3.74h7Z"/><path class="cls-8" d="M158.59,151.46V135.73H164a8.94,8.94,0,0,1,4.16.94,6.91,6.91,0,0,1,2.86,2.65,7.56,7.56,0,0,1,1,3.92V144a7.46,7.46,0,0,1-1,3.9,6.86,6.86,0,0,1-2.84,2.65,9.22,9.22,0,0,1-4.15,1Zm3.63-13.1v10.49H164a4.15,4.15,0,0,0,3.25-1.24,5.21,5.21,0,0,0,1.15-3.55v-.83a5.3,5.3,0,0,0-1.11-3.64,4.17,4.17,0,0,0-3.26-1.23Z"/><path class="cls-8" d="M178.54,151.46h-3.63V135.73h3.63Z"/><path class="cls-8" d="M194.8,138.36h-5.4v13.1h-3.62v-13.1h-5.32v-2.63H194.8Z"/><path class="cls-8" d="M216.12,146.22a5.31,5.31,0,0,1-2.09,4,7.93,7.93,0,0,1-5,1.46,7,7,0,0,1-5.33-2,7.79,7.79,0,0,1-1.94-5.59v-1a8.52,8.52,0,0,1,.9-4,6.22,6.22,0,0,1,2.55-2.65,7.8,7.8,0,0,1,3.87-.92A7.72,7.72,0,0,1,214,137a5.78,5.78,0,0,1,2.16,4.1h-3.63a3.13,3.13,0,0,0-1-2.21,3.76,3.76,0,0,0-2.48-.69,3.24,3.24,0,0,0-2.72,1.16,6,6,0,0,0-.92,3.6v1.19a6.43,6.43,0,0,0,.86,3.73A3.18,3.18,0,0,0,209,149a3.87,3.87,0,0,0,2.51-.69,2.94,2.94,0,0,0,.95-2.12Z"/><path class="cls-8" d="M228.44,148.22h-6.36l-1.21,3.24H217l6.55-15.73h3.36l6.59,15.73h-3.86Zm-5.38-2.63h4.4l-2.21-5.88Z"/><path class="cls-8" d="M241.68,145.7h-2.89v5.76h-3.63V135.73h6.55a8.1,8.1,0,0,1,4.81,1.24,4.1,4.1,0,0,1,1.69,3.51,4.46,4.46,0,0,1-.78,2.69,5.34,5.34,0,0,1-2.36,1.71l3.8,6.42v.16H245Zm-2.89-2.63h2.93a3.18,3.18,0,0,0,2.11-.62,2.09,2.09,0,0,0,.75-1.71,2.25,2.25,0,0,0-.7-1.75,3.21,3.21,0,0,0-2.17-.63h-2.92Z"/><path class="cls-8" d="M251,151.46V135.73h5.41a8.9,8.9,0,0,1,4.15.94,6.79,6.79,0,0,1,2.86,2.65,7.48,7.48,0,0,1,1,3.92V144a7.55,7.55,0,0,1-1,3.9,6.83,6.83,0,0,1-2.85,2.65,9.14,9.14,0,0,1-4.14,1Zm3.62-13.1v10.49h1.76a4.16,4.16,0,0,0,3.25-1.24,5.21,5.21,0,0,0,1.15-3.55v-.83a5.25,5.25,0,0,0-1.12-3.64,4.15,4.15,0,0,0-3.25-1.23Z"/><rect class="cls-6" x="218.86" y="257.47" width="36.5" height="9.74" rx="1.82"/><rect class="cls-6" x="218.86" y="250.79" width="36.5" height="3.95" rx="1.5"/><rect class="cls-2" x="171.31" y="250.79" width="30.05" height="16.42" rx="2.47"/><polygon class="cls-2" points="203.73 255.46 212.21 259.02 203.75 262.54 203.73 255.46"/><rect class="cls-6" x="303.07" y="277.58" width="58.14" height="3.8" rx="1.9"/><rect class="cls-2" x="289.7" y="219.35" width="49.84" height="20.01" rx="4.19"/><rect class="cls-2" x="230.5" y="219.35" width="49.84" height="20.01" rx="4.19"/><rect class="cls-2" x="171.31" y="219.35" width="49.84" height="20.01" rx="4.19"/><rect class="cls-2" x="112.12" y="219.35" width="49.84" height="20.01" rx="4.19"/><rect class="cls-6" x="307.39" y="167.53" width="54.34" height="7.19" rx="1.9"/><circle class="cls-9" cx="324.09" cy="145.28" r="16.69"/><circle class="cls-10" cx="345.04" cy="145.28" r="16.69"/><path class="cls-7" d="M163.05,174v24.77a3.36,3.36,0,0,1-.54,1.83h0a3.4,3.4,0,0,1-2.86,1.56H114.49a3.39,3.39,0,0,1-3-1.76,3.26,3.26,0,0,1-.43-1.64V174a3.4,3.4,0,0,1,3.4-3.4h45.16A3.4,3.4,0,0,1,163.05,174Z"/><path class="cls-10" d="M163.05,180.73v-.86H145.69a33.36,33.36,0,0,0-1.43-9.25h-.91a32.62,32.62,0,0,1,1.48,9.46l0,0a13.92,13.92,0,0,0,0,12.3l0,0a32.87,32.87,0,0,1-1.58,9.74h.91a33.2,33.2,0,0,0,1.52-9.54h17.37v-.86H145.47a13,13,0,0,1,0-11.06Zm-33.58-.51a32.42,32.42,0,0,1,1.33-9.6h-.91a33.62,33.62,0,0,0-1.27,9.25H111.09v.86h17.67a13,13,0,0,1,0,11.06H111.09v.86h17.53a32.83,32.83,0,0,0,1.37,9.54h.91a32.21,32.21,0,0,1-1.43-9.89A14,14,0,0,0,129.47,180.22Z"/><path class="cls-11" d="M175.48,193.19a1.27,1.27,0,0,1-.89-.35,1.29,1.29,0,0,1-.05-1.82,5.64,5.64,0,0,0,0-7.76,1.29,1.29,0,0,1,1.88-1.78,8.23,8.23,0,0,1,0,11.31A1.28,1.28,0,0,1,175.48,193.19Z"/><path class="cls-11" d="M179.08,196.29a1.3,1.3,0,0,1-.94-2.18,10.17,10.17,0,0,0,0-14,1.29,1.29,0,0,1,1.88-1.77,12.75,12.75,0,0,1,0,17.49A1.31,1.31,0,0,1,179.08,196.29Z"/><path class="cls-11" d="M182.42,199.9a1.32,1.32,0,0,1-.89-.35,1.3,1.3,0,0,1-.05-1.83,15.18,15.18,0,0,0,0-20.82,1.29,1.29,0,0,1,1.88-1.78,17.76,17.76,0,0,1,0,24.37A1.29,1.29,0,0,1,182.42,199.9Z"/><path class="cls-12" d="M326.09,118.45c-6.43,37-30,105.33-115.06,169.43H105.45a14,14,0,0,1-14-14V132.49a14,14,0,0,1,14-14Z"/><path class="cls-2" d="M102.09,272.26c-14.89-2.73-14.3-14.86-1.53-8.16-7.9-3.78-8.76-37.74-2.64-23,9.5,24.62,8.88,6.85,9.68-1.23,17.05,9-1,21.57,7.11,21.3,11.31-4.26,2.19-13.53,3.07-20.53,18.57,22.13,5.55,6.27,20.07,3.91-.92,14.2-23,21.73,3,14.41,2.2,7.63-11.88,1.93-6.13,12.72C132.68,273.6,103.88,271.59,102.09,272.26Z"/><path class="cls-2" d="M364.93,273.55c-19.79-4-16.52-18.31-1.87-10-10.26-5.16-12.59-59.86,1.45-15.24,14.93,8.18,4.17-6.37,5.32-13.4,24.38,5.45-.49,28.31,11,25,13.53-6.8,2.58-15.42,2.93-24,2.91-7.11,7.53,12.13,11.41,13.11,7.64,1.84,8.67-17.53,13.58-8.44.29,12.62-14.2,15-12.47,19.09,5,7.37,8.32-4.14,15.28-2.59,7.58,6.59-17.76,6.23-5.93,13.73C410.75,276.28,363.63,272.52,364.93,273.55Z"/><path class="cls-3" d="M158.47,288.29c-49.17-2.41-159.51,9-102.33-15.54,1.6-16.61-22.23-8.82-31.36-20.05-3.77-13.94,25.64,2.69,31.43.56,6.67-4.45-16.06-10.8,2.57-17.16,15.51-4.57,6,23.5,20.28,22.86,8-36.55,6.67,11.5,22.71,1,4.87-3.25,4.35-6,4.43-12-4.67-42.37,21.65-11,6.68,10.5-.8,5.66,3.61,8.54,7.59,1.58,12.12-11.57,31.07,2.68,17.21,15.83C139.89,282.28,155.33,280.1,158.47,288.29Z"/><path class="cls-13" d="M90.1,280.12c.69,2.88-14.42,3-7,8.17H35.83c-7.22-3.74-2-12.21,8-5.55-8.33-7.87-16-55.13,4.52-12.76,10.56,3.41-1.1-10.79,2.66-15.24,22.42,8.62-2.43,28.45,10.84,24,12.83-6.78-2.31-18.93,2.82-23.57,15,18,5.19,17.54,21.4,3.61,8.47,7.39-23,24.88-4.33,21.45C83.49,276.72,93.44,274.09,90.1,280.12Z"/><path class="cls-3" d="M323.9,287.82a4,4,0,0,0,.06.47c6.16-1.68,121,4.83,119.68-5.57-3.05-3.31-19.41-2-11.59-10.36,17.48-11.32,5.38-15.13-8.42-8.57-6.38,6.12-6.65,19.9-15.94,5.16-9.54-12.7,41.86-11.79,13.6-28.78-16.87-.52-20.84,27.19-24.32,31-24.73-2.1-1-17.27-3.29-25.39-39.38-11.51-2.65,41.12-21.27,34.41-21.1-9,1.22-41.84-14.22-29.47C353.45,254.8,348,261,344,259.59c-5-34.46-21.54-11.77-19.75-2.52C339.4,279.68,329.65,273.38,323.9,287.82Z"/><path class="cls-13" d="M344.79,271c1.36,7,5.51,9.87,6.47,17.32h53.13c-25-12.12-1.34-11.44,5.42-4.67,13.93-7.82-5.2-13.75-11.09-9.92,1.86.45,4.53-15-.86-11.4-2,4.75-11.82,15-10.8,3.59,1.89-2,5.57-14.77,1.35-14.91-20.28,50.64-9.83-2.38-19.39-1.22-12.7,12,4.88,25.71-2.64,29.05-12,.48-10.05-4.19-10.94-15.07C354.83,251.7,344.35,260.67,344.79,271Z"/><path class="cls-14" d="M302.59,0l0,0H159.15l10.73,27.35v89.38H312.57V10.46A10.56,10.56,0,0,0,302.59,0Z"/><path class="cls-15" d="M169.88,10.46V29H148.43V10.46a10.73,10.73,0,0,1,21.45,0Z"/><path class="cls-4" d="M264.1,39H182.63a3.5,3.5,0,1,1,0-7H264.1a3.5,3.5,0,0,1,0,7Z"/><path class="cls-4" d="M298.35,39H277.87a3.5,3.5,0,1,1,0-7h20.48a3.5,3.5,0,0,1,0,7Z"/><path class="cls-4" d="M264.1,58.24H182.63a3.5,3.5,0,0,1,0-7H264.1a3.5,3.5,0,0,1,0,7Z"/><path class="cls-4" d="M298.35,58.24H277.87a3.5,3.5,0,0,1,0-7h20.48a3.5,3.5,0,0,1,0,7Z"/><path class="cls-4" d="M264.1,77.49H182.63a3.5,3.5,0,0,1,0-7H264.1a3.5,3.5,0,0,1,0,7Z"/><path class="cls-4" d="M298.35,77.49H277.87a3.5,3.5,0,0,1,0-7h20.48a3.5,3.5,0,0,1,0,7Z"/><path class="cls-4" d="M264.1,96.74H182.63a3.5,3.5,0,0,1,0-7H264.1a3.5,3.5,0,0,1,0,7Z"/><path class="cls-4" d="M298.35,96.74H277.87a3.5,3.5,0,0,1,0-7h20.48a3.5,3.5,0,0,1,0,7Z"/></g></g></svg>