<svg xmlns="http://www.w3.org/2000/svg" viewBox="0 0 458.01 222.95"><defs><style>.cls-1{opacity:0.54;}.cls-2{opacity:0.28;}.cls-3{fill:#b2b4b5;}.cls-4{fill:#120f0a;}.cls-13,.cls-26,.cls-5{fill:#160e0b;}.cls-6{fill:#252547;}.cls-7{fill:#c93b44;}.cls-8{fill:#fcc333;}.cls-9{fill:#202424;}.cls-10{fill:#8b89a7;}.cls-11{fill:#737391;}.cls-12,.cls-14,.cls-25{fill:#161639;}.cls-13,.cls-15{opacity:0.06;}.cls-14{opacity:0.69;}.cls-15,.cls-33,.cls-34{fill:#fff;}.cls-16{fill:#3d3d3d;}.cls-17{fill:none;stroke:#000;stroke-linecap:round;stroke-miterlimit:10;stroke-width:2px;}.cls-18{fill:#3f3f3f;opacity:0.74;}.cls-19{fill:#353535;opacity:0.67;}.cls-20{fill:#525275;}.cls-21{fill:#030505;opacity:0.36;}.cls-22{fill:#c6c6c6;}.cls-23{fill:#67658d;}.cls-24{fill:#fcc330;}.cls-25{opacity:0.48;}.cls-26{opacity:0.56;}.cls-27{fill:#717272;opacity:0.43;}.cls-28{fill:#232324;}.cls-29{fill:#fcc331;}.cls-30{fill:#b9b8c9;}.cls-31{fill:#d26654;}.cls-32{fill:#070403;}.cls-33{opacity:0.15;}</style></defs><title>scooter_1</title><g id="Layer_2" data-name="Layer 2"><g id="DELIVERY"><path class="cls-1" d="M91,206.5c1.83,1.19,20.67-.76,31.12,1.93,8.16,2.09,3.37,5,8.88,5.67,10.36,1.24,28.22-9,52.92-8.76,16.82.14,17.42,4.93,38.89,6.48,23.22,1.68,31.22-3.3,70-4.31,31.53-.81,51.89,1.81,58.05-.73,3.73-1.54-.32-3.91-3.05-5-14.69-5.76-58.34,1.87-126.53-.59-38.4-1.39-47.61-4.55-77.22-3.05C112.53,199.75,88.81,205.05,91,206.5Z"/><path class="cls-2" d="M235.93,190.66c-1.64.38-18.65-.24-28.08.62-7.37.67-3,1.6-8,1.81-9.34.39-25.46-2.86-47.76-2.79-15.18,0-15.72,1.57-35.11,2.06-21,.53-28.18-1.05-63.19-1.37-28.46-.26-46.84.57-52.4-.24-3.37-.49.29-1.24,2.75-1.58,13.26-1.84,52.67.59,114.22-.19,34.67-.44,43-1.45,69.71-1C216.5,188.51,237.92,190.2,235.93,190.66Z"/><path class="cls-2" d="M46.49,207.41c7.33,2.44,27.86,4.79,46.07,4.5,17-.28,17.39-2.62,36.21-3.4,23.8-1,36.16,2.24,70.46,2.79,42,.67,52.78-3.69,92.37-3,35.66.59,37.94,4.31,72.92,5,43.71.89,96.41-3.77,93.36-6.59-3.29-3-73.21-5.46-133.76-4.29-55.4,1.08-59,4.31-99.85,4.37-75.89.12-111.75-10.95-151.91-9C49,198.92,36,203.89,46.49,207.41Z"/><path class="cls-2" d="M156,221c-2.31.8-8.81,1.58-14.57,1.48-5.38-.09-5.5-.86-11.46-1.12-7.53-.32-11.44.74-22.29.92-13.29.22-16.7-1.22-29.23-1-11.28.2-12,1.42-23.07,1.66-13.83.29-30.5-1.25-29.54-2.17s23.17-1.81,42.33-1.42c17.52.36,18.66,1.42,31.59,1.44,24,0,35.36-3.61,48.06-3C155.16,218.18,159.29,219.82,156,221Z"/><path class="cls-3" d="M346.61,149.72a23,23,0,1,0,23,23A23,23,0,0,0,346.61,149.72Zm18.45,15.66L356,168.66l-1.14-2,7.3-6.32C363.6,161.45,365.06,165.38,365.06,165.38Zm-11.15-11.15c1.8.23,5,2.91,5,2.91l-6.21,7.36-2-1.15Zm-22.85,6.12,7.37,6.21-1.15,2-9.12-3.17C328.39,163.59,331.06,160.35,331.06,160.35ZM327,169.78l9.48,1.69v2.3L327,175.59C326.28,173.92,327,169.78,327,169.78Zm1.18,10.2,9.06-3.27,1.14,2-7.3,6.31C329.62,183.92,328.16,180,328.16,180Zm11.15,11.16c-1.8-.24-5-2.91-5-2.91l6.21-7.36,2,1.14Zm1.29-26.7-6.32-7.3c1.1-1.45,5-2.91,5-2.91l3.27,9.06Zm3.1,27.87,1.7-9.48h2.3l1.82,9.48C347.84,193,343.7,192.31,343.7,192.31Zm4.12-29.78h-2.3l-1.82-9.48c1.68-.7,5.82,0,5.82,0Zm6.09,28.61-3.27-9.06,2-1.15,6.32,7.3C357.84,189.67,353.91,191.14,353.91,191.14Zm8.25-6.13-7.37-6.21,1.15-2,9.12,3.16C364.83,181.78,362.16,185,362.16,185Zm-5.4-11.12V171.6l9.48-1.82c.7,1.67,0,5.81,0,5.81Z"/><circle class="cls-4" cx="346.61" cy="172.68" r="8.62"/><path class="cls-5" d="M346.61,138.35A34.34,34.34,0,1,0,381,172.68,34.34,34.34,0,0,0,346.61,138.35Zm0,57.29a23,23,0,1,1,23-23A23,23,0,0,1,346.61,195.64Z"/><path class="cls-3" d="M152.37,149.72a23,23,0,1,0,22.95,23A23,23,0,0,0,152.37,149.72Zm18.45,15.66-9.06,3.28-1.15-2,7.3-6.32C169.36,161.45,170.82,165.38,170.82,165.38Zm-11.15-11.15c1.79.23,5,2.91,5,2.91l-6.21,7.36-2-1.15Zm-22.85,6.12,7.36,6.21-1.14,2-9.13-3.17C134.14,163.59,136.82,160.35,136.82,160.35Zm-4.08,9.43,9.48,1.69v2.3l-9.48,1.82C132,173.92,132.74,169.78,132.74,169.78Zm1.17,10.2,9.06-3.27,1.15,2-7.3,6.31C135.38,183.92,133.91,180,133.91,180Zm11.16,11.16c-1.8-.24-5-2.91-5-2.91l6.22-7.36,2,1.14Zm1.28-26.7-6.32-7.3c1.1-1.45,5-2.91,5-2.91l3.27,9.06Zm3.11,27.87,1.7-9.48h2.29l1.82,9.48C153.6,193,149.46,192.31,149.46,192.31Zm4.12-29.78h-2.3l-1.82-9.48c1.67-.7,5.81,0,5.81,0Zm6.09,28.61-3.28-9.06,2-1.15,6.32,7.3C163.6,189.67,159.67,191.14,159.67,191.14Zm8.24-6.13-7.36-6.21,1.15-2,9.12,3.16C170.59,181.78,167.91,185,167.91,185Zm-5.39-11.12V171.6l9.48-1.82c.7,1.67,0,5.81,0,5.81Z"/><circle class="cls-4" cx="152.37" cy="172.68" r="8.62"/><path class="cls-5" d="M152.37,138.35a34.34,34.34,0,1,0,34.33,34.33A34.33,34.33,0,0,0,152.37,138.35Zm0,57.29a23,23,0,1,1,22.95-23A23,23,0,0,1,152.37,195.64Z"/><path class="cls-6" d="M263.29,154.64l28.72-.86,24.75,8.32s-7.41,3.65-22.25,5.81c-17.6,2.56-44.61,3.68-67.78,3.24l-.5,7.89a11.93,11.93,0,0,1-8.88,3.79H183.61l-11-33.74,6.75-4.73Z"/><path class="cls-7" d="M120.82,101.84h-1.18a4.6,4.6,0,0,0-4.4,4.79v5.14a4.88,4.88,0,0,0,2.38,4.26l2.51,1.41Z"/><path class="cls-8" d="M118,104.13V122a4.19,4.19,0,0,0,2.16,3.66l3.32,1.83V99.8l-1.72.17A4.19,4.19,0,0,0,118,104.13Z"/><path class="cls-9" d="M136.42,112.73l-1.79-16.34h-9.22a3.36,3.36,0,0,0-3.36,3.37v24.91a3.35,3.35,0,0,0,2.15,3.13L118,138.35h5.89l14.87-24Z"/><path class="cls-10" d="M204.64,162.1h62l-17-37.68L154.06,82l-21.52,16a8.4,8.4,0,0,0,.17,13.63Z"/><path class="cls-11" d="M259.67,146.65s-92.61-37.12-111.29-51.43L190,97l59.62,27.4Z"/><path class="cls-12" d="M146.48,75.73h91.63a21.56,21.56,0,0,1,21.56,21.56v15.14a11.43,11.43,0,0,1-16.39,10.3L237,119.15c-15.39-7.22-32.1-15.47-47-22.13,0,0-23.76-.62-37.14-.79h0a11.12,11.12,0,0,1-11-11.12V80.32A4.58,4.58,0,0,1,146.48,75.73Z"/><path class="cls-13" d="M259.67,97.28v7.19s-32.54.14-41.59,0-19.4-7.67-19.4-7.67H181.09c-8.14-.19-20.11-.47-28.23-.58a11.1,11.1,0,0,1-11-11.1V81s1.26,3.48,11,3.48h102.6A21.33,21.33,0,0,1,259.67,97.28Z"/><polygon class="cls-14" points="182.01 122.04 176.69 129.23 210.09 148.26 231.04 147.68 197.9 126.97 195.32 130.03 182.01 122.04"/><path class="cls-15" d="M259.67,97.28v7.19s-32.54.14-41.59,0-19.4-7.67-19.4-7.67H181.09c-8.14-.19-20.11-.47-28.23-.58a11.1,11.1,0,0,1-11-11.1V81s1.26,3.48,11,3.48h102.6A21.33,21.33,0,0,1,259.67,97.28Z"/><path class="cls-16" d="M194.39,169v8.88s-45.94,7.43-66.48-5.89c-18.46-12,11.85-26.82,20.1-26.48C159.77,145.94,173.33,150.69,194.39,169Z"/><path class="cls-3" d="M181,167.45v5.16s-40,2.87-47.36-3.42c-11.15-9.52,7.67-15.93,13.55-15.74C155.52,153.73,165.94,156.82,181,167.45Z"/><line class="cls-17" x1="146.58" y1="158.44" x2="160.09" y2="161.37"/><line class="cls-17" x1="146.58" y1="162.68" x2="160.09" y2="165.61"/><line class="cls-17" x1="146.58" y1="166.93" x2="160.09" y2="169.85"/><circle cx="138.79" cy="161.37" r="2.2"/><circle cx="171.68" cy="168.39" r="2.2"/><polygon class="cls-18" points="187.64 163.35 187.64 150.16 204.64 162.1 204.03 166.93 199.28 172.68 187.64 163.35"/><polygon class="cls-19" points="200.35 171.38 207.5 177.61 210.56 174.01 203.51 167.55 200.35 171.38"/><path class="cls-20" d="M315.57,50.87,295.8,60.26S314.14,95.82,307.23,123c-.56,2.22-1.16,4.43-1.66,6.68-1.37,6.15-5.29,19.45-14.16,23.73l22.06,7.92s3.24,2.15,13.48-8.83,30.56-35.9,30.56-35.9Z"/><path class="cls-21" d="M317.79,110.3s9.82,15.07,4.36,24.25-16.83,24.29-16.83,24.29l10.88,3.73,41.31-44.65-3.95-5.33Z"/><path class="cls-10" d="M357.51,116.64s22.34,6,23.44,28.46c0,0-34.34-1-43.77,2.32Z"/><path class="cls-22" d="M206.87,178.34a9,9,0,0,1,7.68-5.46c4.63-.32,57.13-1.43,86-5.7A39.87,39.87,0,0,0,325,153.79l30.55-35.46a9.72,9.72,0,0,0,.71-.89l1.78.6s-23.1,41.6-62.48,60.3Z"/><path class="cls-23" d="M206.87,178.34s1.89-6.29,7.68-6.69c4.63-.32,57.13-1.43,86-5.7A39.87,39.87,0,0,0,325,152.56l30.55-35.46a9.72,9.72,0,0,0,.71-.89l3.11,1s-20.9,41.19-63.86,60.36Z"/><path class="cls-24" d="M357.51,116.64l-28.32-.84a15.55,15.55,0,0,1-14.58-11.62c-3.28-12.66-8.24-32.22-9.22-38.34-1.42-8.74,8.85-14.29,10.07-14.91l.11-.06,0,.05c.74.89,10.88,13.11,20.36,24.81,1.17,1.44,2.33,2.87,3.43,4.26.56.67,1.09,1.34,1.62,2s1.17,1.49,1.73,2.28c1.05,1.45,2.05,3,3,4.52C353.51,101.6,357.51,116.64,357.51,116.64Z"/><path class="cls-10" d="M357.51,116.64l-28.32-.84a15.55,15.55,0,0,1-14.58-11.62c-3.28-12.66-8.24-32.22-9.22-38.34-1.42-8.74,8.85-14.29,10.07-14.91l.11-.06,0,.05c.74.89,10.88,13.11,20.36,24.81,1.17,1.44,2.33,2.87,3.43,4.26.56.67,1.09,1.34,1.62,2s1.17,1.49,1.73,2.28c1.05,1.45,2.05,3,3,4.52C353.51,101.6,357.51,116.64,357.51,116.64Z"/><path class="cls-25" d="M339.4,80H323.88a2.13,2.13,0,0,1-2.13-2.13h0a2.13,2.13,0,0,1,2.13-2.13H336C337.14,77.17,338.3,78.6,339.4,80Z"/><path class="cls-25" d="M345.73,88.78h-6.6a2.26,2.26,0,0,1-2.26-2.26h0a2.26,2.26,0,0,1,2.26-2.26h3.62C343.8,85.71,344.8,87.22,345.73,88.78Z"/><path class="cls-25" d="M323.65,96.56s.37,11.57,9.75,13.37a160.88,160.88,0,0,0,20,2.26s-13-12-18.7-13.37S323.65,96.56,323.65,96.56Z"/><polygon class="cls-10" points="284.95 36.14 295.8 60.26 315.57 50.87 307.48 37.9 284.95 36.14"/><path class="cls-26" d="M315.57,50.87c-17.37.49-26.64-5.9-26.64-5.9l-2.87-6.37,22.3.7Z"/><path class="cls-10" d="M285,36.13s10.44-7.38,13.37-11.64c1.8-2.62,1.07-8.12,5.46-10.52,2-1.11,13.24-1.93,21.29,8.59s9.45,17.3,9.45,17.3,1,4.79-1.2,6.39-19.89.86-19.89.86S296.4,45.78,285,36.13Z"/><path class="cls-27" d="M333.33,46.24c-2.19,1.6-19.89.88-19.89.88s-17-1.33-28.49-11c0,0,2-1.41,4.46-3.34l42.13-.3a32.07,32.07,0,0,1,3,7.37S335.53,44.65,333.33,46.24Z"/><rect class="cls-28" x="284.38" y="31.14" width="8.61" height="17.92" rx="3.5" transform="translate(112.91 -192.39) rotate(45)"/><path class="cls-28" d="M303.72,34.9H302c-2.6-7.3-8.33-22.39-11.56-23.67A29.37,29.37,0,0,0,286,9.91C285.88,4.37,284,0,281.67,0s-4.39,4.8-4.39,10.71,2,10.72,4.39,10.72c2.18,0,4-3.9,4.33-9a26.15,26.15,0,0,1,3.48,1.09c1.65.83,6.26,11.43,9.86,21.38h-.87a1.24,1.24,0,1,0,0,2.47h5.25a1.24,1.24,0,0,0,0-2.47Z"/><polygon class="cls-4" points="334.43 152.19 342.22 165.81 345.91 164.56 337.73 149.72 334.43 152.19"/><path class="cls-4" d="M340.17,149.72,348,162.57l-.3,2.29,6.64,6.69,5.19-10.26a3.71,3.71,0,0,0-1-4.54l-.4-.31a3.68,3.68,0,0,0-4.95.31l-.56.58-3.89-9Z"/><path class="cls-29" d="M333.33,46.24c-4.12.47-10.12-4-11-4.79s-.28-5.78,0-8.38-3.26-5.52-4.2-7.25,1.33-3,1.33-3c1.54-.74,4-.49,5.75-.15,8,10.44,9.36,17.19,9.36,17.19S335.53,44.65,333.33,46.24Z"/><polygon class="cls-30" points="123.22 17.4 123.22 75.16 181.51 75.16 181.51 17.4 145.65 17.4 123.22 17.4"/><polygon class="cls-31" points="145.65 17.4 145.75 28.61 146.05 28.61 146.63 27.16 147.38 28.61 147.96 27.16 148.7 28.61 149.28 27.16 150.02 28.61 150.6 27.16 151.34 28.61 151.92 27.16 152.67 28.61 153.25 27.16 153.99 28.61 154.57 27.16 155.31 28.61 155.89 27.16 156.63 28.61 157.21 27.16 157.96 28.61 158.53 27.16 159.28 28.61 159.69 28.61 159.69 17.4 145.65 17.4"/><rect class="cls-32" x="145.65" y="33.75" width="14.04" height="4.29" rx="1.74"/><polygon class="cls-33" points="123.22 17.4 123.22 75.16 152.67 75.16 152.67 17.4 134.55 17.4 123.22 17.4"/><rect class="cls-34" x="138.94" y="50.9" width="26.57" height="9.36" rx="0.48" transform="translate(-8.38 33.99) rotate(-12.4)"/><polygon points="142.87 61.23 141.41 54.44 142.52 54.19 143.99 60.98 142.87 61.23"/><polygon points="145.46 60.65 143.99 53.86 144.55 53.74 146.01 60.53 145.46 60.65"/><polygon points="147.47 60.13 146 53.34 146.28 53.28 147.74 60.07 147.47 60.13"/><polygon points="148.99 59.86 147.52 53.07 147.8 53.01 149.26 59.8 148.99 59.86"/><polygon points="150.82 59.35 149.36 52.56 150.19 52.38 151.66 59.16 150.82 59.35"/><polygon points="153.68 58.81 152.22 52.02 152.77 51.89 154.24 58.68 153.68 58.81"/><polygon points="155.28 58.55 153.82 51.76 154.1 51.7 155.56 58.48 155.28 58.55"/><polygon points="157.16 58.14 155.7 51.35 156.53 51.16 158 57.95 157.16 58.14"/><polygon points="159.31 57.59 157.85 50.8 158.13 50.73 159.59 57.52 159.31 57.59"/><polygon points="162.48 56.84 161.01 50.05 161.57 49.92 163.03 56.71 162.48 56.84"/><polygon points="160.88 57.36 159.42 50.57 159.7 50.51 161.16 57.3 160.88 57.36"/></g></g></svg>