<svg xmlns="http://www.w3.org/2000/svg" viewBox="0 0 205.46 211.46"><defs><style>.cls-1{fill:#fcc331;}.cls-2{opacity:0.33;}.cls-13,.cls-3,.cls-7{fill:#fff;}.cls-3{opacity:0.44;}.cls-4{fill:#a8b780;}.cls-5{fill:#97a372;}.cls-6{fill:#7b845e;}.cls-8{fill:#c93b44;}.cls-9{fill:#242d3e;}.cls-10{fill:#bfbfbf;}.cls-11{fill:#5b6045;}.cls-12{fill:#1f467f;}.cls-13{opacity:0.8;}.cls-14{fill:#e0a522;}</style></defs><title>Asset 3</title><g id="Layer_2" data-name="Layer 2"><g id="VIRUS"><path class="cls-1" d="M64.66,26.77S47.61,17.34,45.81,2a2.24,2.24,0,0,0-2-2h0a2.25,2.25,0,0,0-2.51,1.89c-1,6.47-2.69,26,11.18,36.2Z"/><path class="cls-2" d="M64.66,26.77l-3.23,3C59,28.1,42.87,16.59,45.94,2.94,48.3,17.73,64.66,26.77,64.66,26.77Z"/><ellipse class="cls-3" cx="48.72" cy="25.88" rx="1.16" ry="4.89" transform="translate(-5.56 35.75) rotate(-38.28)"/><path class="cls-4" d="M202,153.25c-18.19,14-31.59,5.53-32.71-6.66C160.18,47,124.83,14.8,94.44,14.8c-11.12,0-25.22,6.49-38.11,19.25a3.75,3.75,0,0,0-5.13,5.48,116.22,116.22,0,0,0-19,31.1,3.72,3.72,0,0,0-2.4,6.14,145.17,145.17,0,0,0-5.1,17.52c-3.72-1.1-9.69-3.62-13.35-9S7,72.65,9.35,63.72a4,4,0,1,0-7.74-2C-1.31,73-.25,82.45,4.76,89.82c5.26,7.71,13.49,11,18.35,12.34-.92,5.32-1.61,10.88-2,16.68a5.52,5.52,0,0,0-.45,10.9A207.28,207.28,0,0,0,22,156c.05.41.12.81.18,1.22a3.11,3.11,0,0,0,.72,6.14,3.31,3.31,0,0,0,.55-.05,59.29,59.29,0,0,0,15.81,26A5.29,5.29,0,0,0,39,191,5.51,5.51,0,0,0,47,196a77.93,77.93,0,0,0,46,15.51c16.65,0,101.65-.71,112.36-56.06A2.17,2.17,0,0,0,202,153.25Z"/><path class="cls-5" d="M202.18,152.59a31.36,31.36,0,0,1-3,2.29c-15,10.09-29.37-.76-30.29-12-7-85.68-33.35-117.27-57.74-123.92a39.44,39.44,0,0,0-10.49-1.42c-8.81,0-19.74,5.17-30.11,15.35a29.93,29.93,0,0,1,10.21-.68,5.4,5.4,0,0,1,5-3.64,5.62,5.62,0,0,1,5.27,6.77c6.36,3.28,11.64,8.82,15.41,15.83a6.67,6.67,0,0,1,1.19-.11,7.3,7.3,0,0,1,7.15,7.45,7.52,7.52,0,0,1-3.32,6.29A64.9,64.9,0,0,1,112,89.7c-4.7,27.76-25.38,47.17-46.17,43.34-13.52-2.5-23.75-14.19-28-29.69a192.92,192.92,0,0,0-2.23,27.94,6.63,6.63,0,0,1,.28,13.05q.32,6.07,1,12.42c0,.49.13,1,.19,1.45a4.12,4.12,0,0,1,1.06-.16,4.34,4.34,0,0,1,.76,8.57c7.62,25.22,33.52,44.84,60.64,44.84,14.67,0,96.45-1.7,105.88-56.29C205.75,153.23,203.58,151.39,202.18,152.59ZM107.48,43.84a2.46,2.46,0,1,1,2.36-2.46A2.41,2.41,0,0,1,107.48,43.84ZM49.84,179.46a3.79,3.79,0,1,1,3.63-3.79A3.72,3.72,0,0,1,49.84,179.46Z"/><path class="cls-6" d="M199.91,157a1.81,1.81,0,0,0-2.6-1,22.49,22.49,0,0,1-5.66,2.27,3.68,3.68,0,0,0,.06-.57,4.49,4.49,0,1,0-8.9.63c-7.72-1.87-13.34-8.61-13.91-15.52-1-12-2.33-22.93-4-32.89a4.41,4.41,0,0,0,1.41-3.25,4.46,4.46,0,0,0-2.75-4.13c-4.22-21.77-10.06-38.46-16.81-51a3.29,3.29,0,0,0,1.11-2.46,3.33,3.33,0,0,0-3.33-3.32,3.39,3.39,0,0,0-1,.17c-9.84-15.89-21.26-24-32.28-27a50.08,50.08,0,0,1,8.52,7.58,4.32,4.32,0,0,0-.58.36c-3,2.29-2.32,8.19,1.49,13.17,3.41,4.45,8.17,6.66,11.28,5.46a125.65,125.65,0,0,1,7.77,22.74,1.92,1.92,0,0,0,.6,3.6h.25c2.77,12.47,4.68,27.67,5.13,46.21a203.33,203.33,0,0,0,2.37,27.37,3.31,3.31,0,0,0-1.46,2.24,3.35,3.35,0,0,0,2.6,3.8,44,44,0,0,0,3.2,10.24c5.19,9.62,26,30.08,47.32-3.16A1.83,1.83,0,0,0,199.91,157Z"/><ellipse class="cls-6" cx="74.09" cy="88.76" rx="32.05" ry="25.85" transform="translate(-29.05 141.01) rotate(-77.02)"/><ellipse class="cls-7" cx="68.16" cy="88.51" rx="29.92" ry="23.2" transform="translate(-33.4 135.04) rotate(-77.02)"/><ellipse class="cls-8" cx="60.65" cy="87.97" rx="20.96" ry="12.57" transform="translate(-38.71 127.3) rotate(-77.02)"/><ellipse class="cls-9" cx="57.59" cy="87.8" rx="9.89" ry="5.99" transform="translate(-40.9 124.19) rotate(-77.02)"/><ellipse class="cls-7" cx="61.77" cy="79.53" rx="3.66" ry="2.21" transform="translate(-29.6 121.85) rotate(-77.02)"/><ellipse class="cls-7" cx="69.09" cy="74.34" rx="4.96" ry="3" transform="translate(-18.87 124.97) rotate(-77.02)"/><path class="cls-7" d="M45.65,82.9a3.59,3.59,0,0,1,.08-.35c0,.17-.08.32-.12.49Z"/><path class="cls-7" d="M45.61,83c-.23,1-.43,2-.59,3.07.14-.93.32-1.87.53-2.81Z"/><path class="cls-10" d="M90.76,93.72c-3.18,13.79-13.26,23.63-23.93,24.36,8.15-3.21,15.61-13.14,18.58-26,2.7-11.7,1-22.83-3.78-29.62C89.76,68.36,93.74,80.82,90.76,93.72Z"/><path class="cls-8" d="M69.14,98.58a1.83,1.83,0,0,1,1.75.58,3.55,3.55,0,0,1,.76,1.41c.14.5.21.94.34,1.38s.27.89.43,1.32a15.36,15.36,0,0,0,1.23,2.51,4.19,4.19,0,0,0,2,1.89,4.23,4.23,0,0,1-2.2-1.74A14.56,14.56,0,0,1,72,103.48a19.49,19.49,0,0,1-1-2.66,2.62,2.62,0,0,0-.64-1,.93.93,0,0,0-.83-.27Z"/><path class="cls-8" d="M70.47,95.4c1.35-.48,2.69-.94,4.06-1.36a14.66,14.66,0,0,1,4.23-.85,7.4,7.4,0,0,1,4.12,1.22,12,12,0,0,1,1.67,1.34l.77.73a2.31,2.31,0,0,0,.88.57,2.15,2.15,0,0,1-.91-.53l-.81-.69a11.54,11.54,0,0,0-1.72-1.24,7,7,0,0,0-4-1,12.57,12.57,0,0,0-4,1.07c-1.32.51-2.63,1.06-3.92,1.63Z"/><path class="cls-8" d="M73.1,88.51a4.41,4.41,0,0,0,3.49,2c1.42,0,2.54-1.32,3.9-2.07a19.34,19.34,0,0,1,4.21-2A7,7,0,0,1,87,86.14a2.32,2.32,0,0,1,1.12.3,1.44,1.44,0,0,1,.66.92,1.4,1.4,0,0,0-.68-.88A2.49,2.49,0,0,0,87,86.24a6.87,6.87,0,0,0-2.23.45,18.51,18.51,0,0,0-4,2.15c-.63.43-1.24.89-1.84,1.38a4.29,4.29,0,0,1-2.23,1,4.09,4.09,0,0,1-2.45-.54,6.5,6.5,0,0,1-1.91-1.6Z"/><path class="cls-8" d="M64.48,68.05a7.06,7.06,0,0,1,.17-2.43,4.23,4.23,0,0,1,.49-1.14,3.93,3.93,0,0,1,.82-.89,9.75,9.75,0,0,0,1.49-1.65A6.26,6.26,0,0,0,68,61a1.41,1.41,0,0,0,.15-1.08,1.52,1.52,0,0,1,0,1.13,5.15,5.15,0,0,1-.46,1A10.36,10.36,0,0,1,66.33,64a3,3,0,0,0-.93,1.82,5.87,5.87,0,0,0,.07,2.09Z"/><path class="cls-8" d="M72.27,78a17.5,17.5,0,0,1,2.87-3.49,5.56,5.56,0,0,1,2-1.23,4.8,4.8,0,0,1,2.32,0c.74.16,1.43.42,2.13.59a2.39,2.39,0,0,0,2-.27,9.41,9.41,0,0,0,2.6-3.48,9.56,9.56,0,0,1-2.49,3.63,2.7,2.7,0,0,1-2.19.43c-.74-.13-1.45-.34-2.16-.45a4.23,4.23,0,0,0-2,.15,5,5,0,0,0-1.67,1.18,16.44,16.44,0,0,0-2.51,3.46Z"/><path class="cls-8" d="M73.44,82.16a8.49,8.49,0,0,0,4.36.58,5.23,5.23,0,0,0,2.09-.7,5.37,5.37,0,0,0,1.57-1.58A7.27,7.27,0,0,1,83,78.67a3.42,3.42,0,0,1,2.13-1,2.07,2.07,0,0,1,1.14.35,5.16,5.16,0,0,1,.87.81,15.11,15.11,0,0,1,1.37,1.91,15.22,15.22,0,0,0-1.42-1.86,2.47,2.47,0,0,0-2-1,3.22,3.22,0,0,0-1.92,1.11,7.17,7.17,0,0,0-1.41,1.81,6,6,0,0,1-1.63,1.81,6.07,6.07,0,0,1-2.29.92A9.25,9.25,0,0,1,73,83.08Z"/><path class="cls-8" d="M67.15,68.93a10.64,10.64,0,0,1,3.65-3.08,4.56,4.56,0,0,1,2.42-.45,13.05,13.05,0,0,1,2.28.53,18.13,18.13,0,0,0,2.19.57,2,2,0,0,0,2-.61,4.38,4.38,0,0,0,.78-4.25,4.53,4.53,0,0,1-.58,4.42,2.13,2.13,0,0,1-1,.71,2.94,2.94,0,0,1-1.21.12,16.73,16.73,0,0,1-2.28-.46,13.28,13.28,0,0,0-2.21-.38,3.83,3.83,0,0,0-2,.49,9.85,9.85,0,0,0-3.17,3Z"/><path class="cls-8" d="M66,104.1a22,22,0,0,0,.57,3.79,6.93,6.93,0,0,0,.68,1.73,2.1,2.1,0,0,0,1.39,1,20.07,20.07,0,0,0,3.84.43,5.62,5.62,0,0,1,1,.14,1.16,1.16,0,0,1,.75.65,5.66,5.66,0,0,1,.52,1.89,5.66,5.66,0,0,0-.6-1.85c-.29-.66-1-.6-1.67-.62a19.49,19.49,0,0,1-4-.17,3.38,3.38,0,0,1-1-.36,2.43,2.43,0,0,1-.8-.76,7.15,7.15,0,0,1-.87-1.86,21.65,21.65,0,0,1-.86-3.91Z"/><path class="cls-8" d="M61.15,107.72a3,3,0,0,0-.29,2.85c.4.9,1.59,1.2,2.68,1.56a4.72,4.72,0,0,1,.84.36,1.42,1.42,0,0,1,.66.76,1.77,1.77,0,0,1-.05,1,3.94,3.94,0,0,1-.31.83,12.9,12.9,0,0,1-1.93,2.89,12.64,12.64,0,0,0,1.69-3,4.55,4.55,0,0,0,.23-.8,1.5,1.5,0,0,0,0-.76c-.17-.42-.75-.6-1.28-.74a15.73,15.73,0,0,1-1.7-.48,2.77,2.77,0,0,1-1.51-1.2,3.24,3.24,0,0,1-.43-1.9,4.64,4.64,0,0,1,.55-1.86Z"/><path class="cls-8" d="M56.44,107.56a10,10,0,0,1,.87,2.22,2.87,2.87,0,0,1,.1.63,1.1,1.1,0,0,1-.22.74,2.75,2.75,0,0,1-1,.8,5,5,0,0,0-.9.59,1.12,1.12,0,0,0-.17.94,3.41,3.41,0,0,0,.9,2,3.46,3.46,0,0,1-1.16-2,1.42,1.42,0,0,1,.13-1.24,5,5,0,0,1,.91-.78,2.32,2.32,0,0,0,.7-.7.47.47,0,0,0,.06-.34,2.68,2.68,0,0,0-.13-.48,10,10,0,0,0-1-1.93Z"/><path class="cls-8" d="M52.65,106.58A4.17,4.17,0,0,0,50,108.72a4.51,4.51,0,0,1,2.35-2.83Z"/><path class="cls-8" d="M58.42,70a2.13,2.13,0,0,1-1.13-2.12,2.58,2.58,0,0,1,.41-1.12,1.76,1.76,0,0,1,1-.67,1.92,1.92,0,0,0,.89-.39,1.62,1.62,0,0,0,.39-.88,3.58,3.58,0,0,0-.39-2,3.69,3.69,0,0,1,.61,2.06,1.9,1.9,0,0,1-.37,1.08,2.24,2.24,0,0,1-1,.56,1.34,1.34,0,0,0-.71.55,2.15,2.15,0,0,0-.24.9,1.47,1.47,0,0,0,.85,1.39Z"/><path class="cls-8" d="M54.94,73.2a3.82,3.82,0,0,1-1.35-1.06A2.31,2.31,0,0,1,53,70.51,3.8,3.8,0,0,1,53.72,69a1.79,1.79,0,0,0,.38-1.44,1.91,1.91,0,0,1-.2,1.54,3.55,3.55,0,0,0-.44,1.41A2,2,0,0,0,54,71.75a3.25,3.25,0,0,0,1.17.75Z"/><path class="cls-8" d="M52.79,75.89a7.31,7.31,0,0,0-.5-1.24,2.42,2.42,0,0,0-.79-1,.92.92,0,0,0-1.12.19,3.55,3.55,0,0,1-.57.43.88.88,0,0,1-.71,0c.51.11.85-.27,1.15-.63a1.21,1.21,0,0,1,1.43-.39,2.93,2.93,0,0,1,1.1,1,8.17,8.17,0,0,1,.72,1.3Z"/><path class="cls-8" d="M50.79,80.67a4.07,4.07,0,0,1-1.24.2,2,2,0,0,1-1.24-.35,1.42,1.42,0,0,1-.58-1.09,6.27,6.27,0,0,0,0-1.15A7.51,7.51,0,0,1,48,79.4a1.11,1.11,0,0,0,.61.77A2.39,2.39,0,0,0,50.5,80Z"/><path class="cls-8" d="M49.08,85.22a4.35,4.35,0,0,0-1.26-.73.92.92,0,0,0-.59,0c-.15,0-.23.19-.28.44s-.08.52-.17.8a2.14,2.14,0,0,1-.43.73,11.85,11.85,0,0,1-1.19,1.07,11.56,11.56,0,0,0,1-1.21,2.5,2.5,0,0,0,.34-1.45A1,1,0,0,1,47,84a1.38,1.38,0,0,1,1-.09,5.05,5.05,0,0,1,1.56.72Z"/><path class="cls-8" d="M48.44,91.53a5.35,5.35,0,0,1-1,.56,2,2,0,0,1-1.21.17,2.43,2.43,0,0,1-1-.62,2.63,2.63,0,0,1-.63-.89,2.52,2.52,0,0,0,.77.72,2.06,2.06,0,0,0,.92.35A2.81,2.81,0,0,0,48,91Z"/><path class="cls-8" d="M48.17,97a1.74,1.74,0,0,0-.78-.3.66.66,0,0,0-.64.33,1.33,1.33,0,0,0-.29.87,1.61,1.61,0,0,1-.07.53,1.07,1.07,0,0,1-.33.42.94.94,0,0,0,.18-.93,1.74,1.74,0,0,1,.12-1.1,1.2,1.2,0,0,1,1-.71,2.39,2.39,0,0,1,1.18.24Z"/><path class="cls-8" d="M75.1,94.14a3.49,3.49,0,0,0,.33,1.71.94.94,0,0,0,.55.47c.09,0,.3.05.47.1a1.78,1.78,0,0,1,.52.25c.65.48.74,1.22,1.1,1.66a1.67,1.67,0,0,0,1.64.45,2.12,2.12,0,0,1,1.92.4,3.46,3.46,0,0,1,.91,1.73,12.72,12.72,0,0,1,.21,3.89,12.49,12.49,0,0,0-.32-3.86,3.39,3.39,0,0,0-.92-1.63A1.86,1.86,0,0,0,79.75,99a3.08,3.08,0,0,1-1,0,1.51,1.51,0,0,1-.95-.5c-.46-.54-.63-1.22-1.1-1.49a1.11,1.11,0,0,0-.37-.15l-.48-.07a1.51,1.51,0,0,1-.94-.69,4.06,4.06,0,0,1-.55-2Z"/><path class="cls-8" d="M65.57,106.29a2.12,2.12,0,0,1,1-.48,1.36,1.36,0,0,1,1.07.28c.29.24.44.5.65.7a4.57,4.57,0,0,0,.69.54,4.83,4.83,0,0,0,1.69.57,12.25,12.25,0,0,1,1.8.38,11.18,11.18,0,0,0-1.82-.23,5.25,5.25,0,0,1-1.81-.46,3.59,3.59,0,0,1-.8-.53,5.27,5.27,0,0,0-.67-.58,1,1,0,0,0-1.26.34Z"/><path class="cls-8" d="M68.51,67.56a19.69,19.69,0,0,0,1.85-2,5.54,5.54,0,0,0,.72-1.11,1.53,1.53,0,0,0,.18-.56c0-.21,0-.44,0-.66a3,3,0,0,1,.15-1.48,1.86,1.86,0,0,1,1.26-.79,3.58,3.58,0,0,1,1.42,0,4.74,4.74,0,0,0,1.37.23A4.92,4.92,0,0,1,74.1,61a3,3,0,0,0-1.34.15,1.59,1.59,0,0,0-1,.71,2.76,2.76,0,0,0,0,1.28,4.33,4.33,0,0,1,0,.73,2,2,0,0,1-.2.77,6.83,6.83,0,0,1-.74,1.26A21.1,21.1,0,0,1,69,68.1Z"/><path class="cls-8" d="M74.76,75.55a13.37,13.37,0,0,0,1.66,1.71,5.06,5.06,0,0,0,2,1.14,2.22,2.22,0,0,0,1.14-.05,2.66,2.66,0,0,0,1-.51,2.53,2.53,0,0,0,.67-1,5.66,5.66,0,0,0,.2-.58c.07-.17.08-.44.3-.5-.21.07-.2.33-.25.52s-.09.4-.15.59A2.59,2.59,0,0,1,80.74,78a3.12,3.12,0,0,1-2.37.81,5.45,5.45,0,0,1-2.3-1.09A13.53,13.53,0,0,1,74.19,76Z"/><path class="cls-11" d="M61.4,54.43S86,41.15,96.12,62.72c0,0-3.92-10.7-1-18s-3.82,6.16-3.82,6.16S77,42.07,61.4,54.43Z"/><path class="cls-12" d="M101.79,14.91l-1.5-.11A8.35,8.35,0,0,1,101.79,14.91Z"/><circle class="cls-6" cx="126.67" cy="84.58" r="3.22"/><circle class="cls-6" cx="110.83" cy="30.62" r="2.49"/><circle class="cls-6" cx="145.48" cy="178.38" r="3.35"/><circle class="cls-6" cx="122.45" cy="142.19" r="2.28"/><circle class="cls-4" cx="95.54" cy="193.95" r="4.76"/><circle class="cls-4" cx="102.89" cy="24.86" r="1.51"/><path class="cls-6" d="M94.46,151.58a1.9,1.9,0,0,0-.25,0c-2.37-11.63-21.07-12.9-21.07-12.9-41.6-5.26-26.76,24.09-19.45,30.55,6.25,5.53,27.17,16.45,38.29-6a23.15,23.15,0,0,0,2.33-7.1l.15,0a2.29,2.29,0,0,0,0-4.57Z"/><path class="cls-11" d="M70.73,138.84S95.09,140.36,85.85,160s-26.16,10.31-31.2,5.56C48.76,160,36.93,134.61,70.73,138.84Z"/><path class="cls-13" d="M58.94,167.07a9.12,9.12,0,0,1-.94,1,22,22,0,0,1-3.35-2.55,20.93,20.93,0,0,1-3.28-4.31l.07-.09c2.32-2.93,5.87-4,7.94-2.33S61.25,164.14,58.94,167.07Z"/><path class="cls-13" d="M68,138.55c0,4.69-2.19,8.59-5.66,9.35-3.79.83-7.77-2.34-9.51-7.27C55.93,138.85,60.78,138,68,138.55Z"/><path class="cls-13" d="M86.43,146.37c-3.7,3.43-8.48,4.39-11.42,2-2.43-1.92-3-5.57-1.67-9.25C77,139.81,83.49,141.6,86.43,146.37Z"/><path class="cls-1" d="M147.21,15.82c-2.21,14.41-16.76,28-16.76,28-10.7-2.75-10.92-14.76-10.92-14.76,10.65-6.09,16-11.9,18.61-16.66l2.5,1.93,1.3,2.51Z"/><path class="cls-2" d="M147.21,15.82c-2.07,13.84-16.35,27.74-16.76,28A13.36,13.36,0,0,1,125,41.06S136.07,40.43,147.21,15.82Z"/><ellipse class="cls-3" cx="125.62" cy="30.48" rx="5.08" ry="1" transform="translate(3.23 72.08) rotate(-32.41)"/><ellipse class="cls-3" cx="133.15" cy="23.8" rx="2.86" ry="0.78" transform="translate(17.85 94.51) rotate(-41.65)"/><path class="cls-14" d="M138.14,12.42a1.84,1.84,0,0,1,2-1.29c1.51,0,8,.68,7.08,4.69s-5.27,1-5.27,1l-1.3-2.51Z"/><path class="cls-5" d="M142.86,102.11a47.81,47.81,0,0,1-5.19-.25,4,4,0,1,1,1-8h0c.18,0,18.77,2.07,28.09-8,5.14-5.54,6.65-14,4.47-25.29A4,4,0,1,1,179,59.13c2.7,13.9.51,24.76-6.49,32.29C163.89,100.71,150.27,102.11,142.86,102.11Z"/></g></g></svg>